<svg xmlns="http://www.w3.org/2000/svg" width="272" height="28" fill="none" viewBox="0 0 272 28"><path fill="#00AF87" d="M91.104 2.735a1.793 1.793 0 0 0 1.103 1.653 1.782 1.782 0 0 0 2.434-1.305 1.794 1.794 0 0 0-.76-1.837 1.782 1.782 0 0 0-2.254.224c-.334.336-.522.79-.523 1.265z"/><path fill="#000" d="M6.298 2.611l-2.705.935v3.54h-3v2.375h2.914v7.621c0 3.628 1.234 5.106 4.257 5.106A8.448 8.448 0 0 0 10 21.894l.118-.032-.033-2.458-.209.073c-.453.18-.932.286-1.42.31-1.419 0-1.947-.803-1.947-2.965V9.461h3.463V7.087H6.51V2.538l-.211.073zM15.66 9.49V7.088h-2.744V21.93h3.002v-7.451c0-3.125 1.307-4.845 3.681-4.845.367.003.73.06 1.081.168l.197.055.097-2.932-1.29-.099a4.408 4.408 0 0 0-4.025 2.665zm21.427-2.75a5.736 5.736 0 0 0-4.948 2.757v-2.41h-2.743v20.89h3.003v-8.1a5.455 5.455 0 0 0 4.575 2.282c3.796 0 6.248-3.117 6.248-7.94 0-4.475-2.465-7.48-6.135-7.48zm-.835 12.989c-2.375 0-3.853-2.034-3.853-5.309 0-3.154 1.558-5.192 3.969-5.192 2.321 0 3.707 1.93 3.707 5.165 0 3.291-1.465 5.336-3.823 5.336z"/><path fill="#00AF87" d="M51.994 6.74c-1.698-.03-3.38.332-4.917 1.057l-.093.044.034 2.568.234-.13a8.198 8.198 0 0 1 3.963-1.195c2.173 0 3.42 1.25 3.42 3.428v.128h-1.716c-4.943 0-7.664 1.794-7.664 5.05 0 2.615 1.962 4.441 4.776 4.441a5.658 5.658 0 0 0 4.805-2.348v2.146h2.716v-8.985c0-4.117-1.87-6.205-5.558-6.205zm2.64 8.924c0 2.56-1.534 4.209-3.911 4.209a2.289 2.289 0 0 1-2.286-1.398 2.303 2.303 0 0 1-.18-.93c0-1.8 1.716-2.791 4.834-2.791h1.544v.91zM70.307 0v9.101a5.42 5.42 0 0 0-4.633-2.362c-3.668 0-6.132 3.03-6.132 7.536 0 4.643 2.498 7.883 6.076 7.883a5.507 5.507 0 0 0 4.92-2.77v2.541h2.772V0h-3.003zm-3.909 19.67c-2.288 0-3.71-2-3.71-5.22 0-3.225 1.434-5.308 3.651-5.308 2.485 0 3.968 1.984 3.968 5.308 0 3.172-1.535 5.22-3.909 5.22zm20.33-12.583l-4.26 8.566-3.934-8.566h-3.385l7.258 14.843 7.455-14.843h-3.134zm7.51 0h-2.845V21.93h3.004V7.087h-.16zm3.679 3.805c0 2.09 1.432 3.188 4.072 4.48 1.667.823 2.539 1.305 2.539 2.463 0 1.184-1.072 1.953-2.729 1.953a8.694 8.694 0 0 1-3.768-.97l-.22-.106-.1 2.614.105.043c1.232.486 2.544.735 3.868.733 3.673 0 6.047-1.754 6.047-4.47 0-2.265-1.504-3.412-4.104-4.63-1.908-.895-2.706-1.422-2.706-2.37 0-.907.887-1.49 2.263-1.49a8.306 8.306 0 0 1 3.598.824l.214.102.137-2.563-.122-.037a12.927 12.927 0 0 0-3.653-.555c-3.255 0-5.441 1.598-5.441 3.979zm19.178-4.152c-4.513 0-7.316 2.976-7.316 7.768s2.803 7.77 7.316 7.77c4.532 0 7.348-2.978 7.348-7.77s-2.816-7.769-7.348-7.769zm.029 13.077c-2.493 0-4.17-2.147-4.17-5.338 0-3.209 1.677-5.366 4.17-5.366 2.535 0 4.172 2.105 4.172 5.366 0 3.242-1.637 5.338-4.172 5.338zM129.983 9.49V7.088h-2.742V21.93h3.002v-7.451c0-3.125 1.309-4.845 3.68-4.845.367.003.731.06 1.081.168l.198.055.098-2.932-1.291-.099a4.413 4.413 0 0 0-4.026 2.665z"/><path fill="#000" d="M26.326 7.087h-2.845V21.93h3.004V7.087h-.159zm-3.134-4.352a1.793 1.793 0 0 0 1.102 1.654A1.782 1.782 0 0 0 26.241 4 1.791 1.791 0 0 0 24.978.944a1.787 1.787 0 0 0-1.787 1.791z"/><path fill="#FFCD48" d="M156.524 2.318a.515.515 0 0 1 .952 0l2.674 6.437c.074.179.242.3.434.316l6.941.557a.516.516 0 0 1 .294.906l-5.288 4.536a.515.515 0 0 0-.166.511l1.616 6.782a.516.516 0 0 1-.77.56l-5.942-3.634a.516.516 0 0 0-.538 0l-5.942 3.634a.516.516 0 0 1-.77-.56l1.616-6.782a.515.515 0 0 0-.166-.511l-5.288-4.536a.516.516 0 0 1 .294-.906l6.941-.557a.515.515 0 0 0 .434-.316l2.674-6.437zm26 0a.515.515 0 0 1 .952 0l2.674 6.437c.074.179.242.3.434.316l6.941.557a.516.516 0 0 1 .294.906l-5.288 4.536a.515.515 0 0 0-.166.511l1.616 6.782a.516.516 0 0 1-.77.56l-5.942-3.634a.516.516 0 0 0-.538 0l-5.942 3.634a.516.516 0 0 1-.77-.56l1.616-6.782a.515.515 0 0 0-.166-.511l-5.288-4.536a.516.516 0 0 1 .294-.906l6.941-.557a.515.515 0 0 0 .434-.316l2.674-6.437zm26 0a.515.515 0 0 1 .952 0l2.674 6.437c.074.179.242.3.434.316l6.941.557a.516.516 0 0 1 .294.906l-5.288 4.536a.515.515 0 0 0-.166.511l1.616 6.782a.516.516 0 0 1-.77.56l-5.942-3.634a.516.516 0 0 0-.538 0l-5.942 3.634a.516.516 0 0 1-.77-.56l1.616-6.782a.515.515 0 0 0-.166-.511l-5.288-4.536a.516.516 0 0 1 .294-.906l6.941-.557a.515.515 0 0 0 .434-.316l2.674-6.437zm26 0a.515.515 0 0 1 .952 0l2.674 6.437c.074.179.242.3.434.316l6.941.557a.516.516 0 0 1 .294.906l-5.288 4.536a.515.515 0 0 0-.166.511l1.616 6.782a.516.516 0 0 1-.77.56l-5.942-3.634a.516.516 0 0 0-.538 0l-5.942 3.634a.516.516 0 0 1-.77-.56l1.616-6.782a.515.515 0 0 0-.166-.511l-5.288-4.536a.516.516 0 0 1 .294-.906l6.941-.557a.515.515 0 0 0 .434-.316l2.674-6.437zm26 0a.515.515 0 0 1 .952 0l2.674 6.437c.074.179.242.3.434.316l6.941.557a.516.516 0 0 1 .294.906l-5.288 4.536a.515.515 0 0 0-.166.511l1.616 6.782a.516.516 0 0 1-.77.56l-5.942-3.634a.516.516 0 0 0-.538 0l-5.942 3.634a.516.516 0 0 1-.77-.56l1.616-6.782a.515.515 0 0 0-.166-.511l-5.288-4.536a.516.516 0 0 1 .294-.906l6.941-.557a.515.515 0 0 0 .434-.316l2.674-6.437z"/></svg>