<svg xmlns="http://www.w3.org/2000/svg" width="48" height="48" fill="none" viewBox="0 0 48 48"><path fill="#A5B5C4" d="M44 10H4a4 4 0 0 0-4 4v30a4 4 0 0 0 4 4h40a4 4 0 0 0 4-4V14a4 4 0 0 0-4-4z"/><path fill="#A5B5C4" d="M24 16a5.09 5.09 0 0 0 5.09-5.09 5.09 5.09 0 1 0-10.18-.002A5.089 5.089 0 0 0 24 16zm0 5.818c-6.025 0-10.91-4.884-10.91-10.91C13.09 4.885 17.976 0 24 0s10.91 4.884 10.91 10.91c0 6.024-4.885 10.908-10.91 10.908z"/><path fill="#fff" d="M32.314 8.5a8.657 8.657 0 0 0-16.838.896.657.657 0 0 0 .53.76.657.657 0 0 0 .76-.53A7.345 7.345 0 0 1 24 3.566a7.351 7.351 0 0 1 7.232 6.043.66.66 0 0 0 .758.53.662.662 0 0 0 .53-.76c-.054-.3-.122-.59-.205-.88zM8.764 28.87v16.138H5.806v-16.14H2.662V26.2h9.272v2.67h-3.17zm11.9 16.138l-2.457-7.713h-1.664v7.713h-2.958V26.2h4.754c3.434 0 4.808 1.665 4.808 5.548 0 2.325-.476 3.99-2.193 4.913l2.8 8.35h-3.09v-.003zm-2.298-16.14h-1.823v5.76h1.823c1.584 0 1.822-1.32 1.822-2.88 0-1.558-.24-2.88-1.83-2.88h.008zm7.195-2.668h2.96v18.81h-2.96V26.2zm10.114 11.465h-1.77v7.343h-2.958V26.2h4.728c3.407 0 4.834 1.77 4.834 5.707 0 3.803-1.268 5.758-4.834 5.758zm.053-8.796H33.9v6.12h1.823c1.583 0 1.82-1.4 1.82-3.07s-.237-3.07-1.82-3.07l.006.02zm8.22 16.24a1.84 1.84 0 0 1-1.85-1.85c0-1.03.82-1.88 1.85-1.88 1.03 0 1.85.84 1.85 1.87 0 1.03-.82 1.85-1.85 1.85v.01zm-1.4-18.92h2.8v13.53h-2.8v-13.53zM6.97 22.459c-.417.47-.97.83-1.913.83-.94 0-1.5-.36-1.91-.83-.74-.83-.72-2.271-.72-4.211 0-1.94-.02-3.38.72-4.21.41-.47.97-.83 1.91-.83s1.493.36 1.91.83c.734.83.72 2.27.72 4.21s.014 3.383-.72 4.215l.003-.003zm-1.16-7.48c-.138-.22-.374-.373-.748-.373s-.596.153-.735.375c-.29.48-.346 1.47-.346 3.27 0 1.81.06 2.8.35 3.27.14.23.36.38.74.38s.61-.15.75-.37c.29-.47.34-1.47.34-3.27s-.04-2.8-.33-3.27l-.02-.011zm7.292 8.205l-2.328-5.862v5.862H9.221v-9.866h1.385l2.315 5.86v-5.86h1.552v9.866h-1.372zm3.043 0v-9.866h4.146v1.4H17.7v2.798h2.232v1.4H17.7v2.87h2.593v1.398h-4.148zm11.035-8.467v8.468h-1.553v-8.468h-1.65v-1.4h4.865v1.4H27.18zm10.485 8.468h-1.622l-1.413-7.497-1.4 7.497h-1.62l-1.872-9.867h1.705l.97 7.483 1.358-7.48h1.72l1.37 7.49.96-7.48h1.71l-1.86 9.87-.006-.016zm7.206-.704c-.41.47-.97.83-1.91.83s-1.49-.36-1.91-.83c-.73-.83-.72-2.27-.72-4.21s-.01-3.38.72-4.21c.42-.47.97-.83 1.92-.83.94 0 1.496.36 1.91.83.736.83.72 2.27.72 4.21s.016 3.386-.72 4.218l-.01-.008zm-1.17-7.5c-.132-.22-.37-.37-.742-.37-.376 0-.598.15-.737.378-.29.472-.346 1.47-.346 3.27 0 1.803.05 2.8.34 3.272.14.22.36.373.73.373s.61-.153.744-.374c.29-.474.333-1.47.333-3.27 0-1.804-.043-2.8-.334-3.27l.012-.01z"/><path fill="#fff" d="M30.05 8.827l2.308 2.353L33.25 8"/></svg>