<svg xmlns="http://www.w3.org/2000/svg" width="266" height="22" fill="none" viewBox="0 0 266 22"><path fill="#12CF6C" d="M10 2C4.477 2 0 6.477 0 12s4.477 10 10 10 10-4.477 10-10S15.523 2 10 2zm4.694 17l-4.703-3.611L5.323 19l1.814-5.893L2.5 9.5h5.627l1.864-5.627L11.873 9.5H17.5l-4.62 3.624L14.694 19z"/><path fill="#000" d="M25 4.565c0-.494.407-.898.88-.898h5.912c1.94 0 3.498.583 4.49 1.571.767.764 1.218 1.864 1.218 3.1v.045c0 2.583-1.76 4.087-4.22 4.559l3.927 5.03c.18.203.293.405.293.652 0 .472-.451.876-.902.876-.361 0-.632-.202-.835-.472l-4.446-5.75h-4.535V18.6a.903.903 0 0 1-.902.899.899.899 0 0 1-.88-.899V4.565zm6.634 7.12c2.369 0 4.061-1.213 4.061-3.235v-.045c0-1.932-1.49-3.1-4.039-3.1h-4.873v6.379h4.85zm9.199 6.911V4.57c0-.497.408-.904.884-.904h9.855a.81.81 0 0 1 .815.814.811.811 0 0 1-.815.815h-8.95V10.7h7.93c.453 0 .816.385.816.814a.811.811 0 0 1-.816.815h-7.93v5.542h9.063a.81.81 0 0 1 .815.814.812.812 0 0 1-.816.814h-9.967a.904.904 0 0 1-.884-.904zm20.549.17L55.094 4.932a.782.782 0 0 1-.094-.4c0-.444.42-.865.932-.865.466 0 .792.288.955.666l5.636 12.879 5.66-12.923c.163-.311.49-.622.909-.622.512 0 .908.4.908.844a.884.884 0 0 1-.07.355l-6.312 13.9c-.21.445-.536.734-1.071.734h-.094c-.535-.001-.884-.29-1.071-.734zM73.333 4.559c0-.491.38-.892.823-.892.464 0 .844.4.844.892v14.049c0 .49-.38.892-.844.892-.443 0-.823-.401-.823-.892V4.558zm5.834 14.037V4.57c0-.497.407-.904.883-.904h9.855c.453 0 .816.361.816.814a.811.811 0 0 1-.816.815h-8.949V10.7h7.93c.453 0 .815.385.815.814a.811.811 0 0 1-.815.815h-7.93v5.542h9.062a.81.81 0 0 1 .815.814.812.812 0 0 1-.815.814H80.05a.903.903 0 0 1-.883-.904zM93.424 5.02a1.4 1.4 0 0 1-.09-.42c0-.49.428-.933.925-.933.452 0 .79.35.927.77l4.36 12.979L103.68 4.39c.135-.42.406-.724.881-.724h.113c.451 0 .745.304.881.724l4.134 13.025 4.382-13.025c.136-.42.429-.724.858-.724.475 0 .904.444.904.91 0 .14-.068.304-.113.444l-5.06 14.519c-.158.466-.475.793-.926.793h-.135c-.453 0-.768-.327-.927-.793l-4.111-12.558-4.089 12.558c-.158.466-.474.793-.926.793h-.136c-.451 0-.768-.303-.926-.793l-5.06-14.52zm25.246 13.139a.831.831 0 0 1-.337-.695c0-.51.382-.903.855-.903.225 0 .427.093.539.208 1.484 1.297 2.968 1.921 4.968 1.921 2.113 0 3.507-1.157 3.507-2.755v-.046c0-1.504-.786-2.36-4.091-3.079-3.619-.81-5.283-2.013-5.283-4.676v-.046c0-2.547 2.18-4.421 5.17-4.421 2.068 0 3.574.532 5.013 1.597.18.139.382.393.382.74 0 .487-.382.88-.854.88a.816.816 0 0 1-.517-.162c-1.327-.995-2.608-1.412-4.069-1.412-2.045 0-3.349 1.157-3.349 2.615v.047c0 1.528.809 2.384 4.271 3.149 3.507.787 5.125 2.106 5.125 4.582v.047c0 2.778-2.248 4.583-5.372 4.583-2.293.001-4.204-.74-5.958-2.174z"/><path fill="#FFCD48" d="M150.524.318a.515.515 0 0 1 .952 0l2.674 6.437c.074.179.242.3.434.316l6.941.557a.516.516 0 0 1 .294.906l-5.288 4.536a.515.515 0 0 0-.166.511l1.616 6.782a.516.516 0 0 1-.77.56l-5.942-3.634a.516.516 0 0 0-.538 0l-5.942 3.634a.516.516 0 0 1-.77-.56l1.616-6.782a.515.515 0 0 0-.166-.511l-5.288-4.536a.516.516 0 0 1 .294-.906l6.941-.557a.515.515 0 0 0 .434-.316l2.674-6.437zm26 0a.515.515 0 0 1 .952 0l2.674 6.437c.074.179.242.3.434.316l6.941.557a.516.516 0 0 1 .294.906l-5.288 4.536a.515.515 0 0 0-.166.511l1.616 6.782a.516.516 0 0 1-.77.56l-5.942-3.634a.516.516 0 0 0-.538 0l-5.942 3.634a.516.516 0 0 1-.77-.56l1.616-6.782a.515.515 0 0 0-.166-.511l-5.288-4.536a.516.516 0 0 1 .294-.906l6.941-.557a.515.515 0 0 0 .434-.316l2.674-6.437zm26 0a.515.515 0 0 1 .952 0l2.674 6.437c.074.179.242.3.434.316l6.941.557a.516.516 0 0 1 .294.906l-5.288 4.536a.515.515 0 0 0-.166.511l1.616 6.782a.516.516 0 0 1-.77.56l-5.942-3.634a.516.516 0 0 0-.538 0l-5.942 3.634a.516.516 0 0 1-.77-.56l1.616-6.782a.515.515 0 0 0-.166-.511l-5.288-4.536a.516.516 0 0 1 .294-.906l6.941-.557a.515.515 0 0 0 .434-.316l2.674-6.437zm26 0a.515.515 0 0 1 .952 0l2.674 6.437c.074.179.242.3.434.316l6.941.557a.516.516 0 0 1 .294.906l-5.288 4.536a.515.515 0 0 0-.166.511l1.616 6.782a.516.516 0 0 1-.77.56l-5.942-3.634a.516.516 0 0 0-.538 0l-5.942 3.634a.516.516 0 0 1-.77-.56l1.616-6.782a.515.515 0 0 0-.166-.511l-5.288-4.536a.516.516 0 0 1 .294-.906l6.941-.557a.515.515 0 0 0 .434-.316l2.674-6.437zm26 0a.515.515 0 0 1 .952 0l2.674 6.437c.074.179.242.3.434.316l6.941.557a.516.516 0 0 1 .294.906l-5.288 4.536a.515.515 0 0 0-.166.511l1.616 6.782a.516.516 0 0 1-.77.56l-5.942-3.634a.516.516 0 0 0-.538 0l-5.942 3.634a.516.516 0 0 1-.77-.56l1.616-6.782a.515.515 0 0 0-.166-.511l-5.288-4.536a.516.516 0 0 1 .294-.906l6.941-.557a.515.515 0 0 0 .434-.316l2.674-6.437z"/></svg>