<svg xmlns="http://www.w3.org/2000/svg" width="233" height="34" fill="none" viewBox="0 0 233 34"><path fill="#FFCD48" d="M117.524 4.318a.515.515 0 0 1 .952 0l2.674 6.437c.074.179.242.3.434.316l6.941.557a.516.516 0 0 1 .294.906l-5.288 4.536a.515.515 0 0 0-.166.511l1.616 6.782a.516.516 0 0 1-.77.56l-5.942-3.634a.516.516 0 0 0-.538 0l-5.942 3.634a.516.516 0 0 1-.77-.56l1.616-6.782a.515.515 0 0 0-.166-.511l-5.288-4.536a.516.516 0 0 1 .294-.906l6.941-.557a.515.515 0 0 0 .434-.316l2.674-6.437zm26 0a.515.515 0 0 1 .952 0l2.674 6.437c.074.179.242.3.434.316l6.941.557a.516.516 0 0 1 .294.906l-5.288 4.536a.515.515 0 0 0-.166.511l1.616 6.782a.516.516 0 0 1-.77.56l-5.942-3.634a.516.516 0 0 0-.538 0l-5.942 3.634a.516.516 0 0 1-.77-.56l1.616-6.782a.515.515 0 0 0-.166-.511l-5.288-4.536a.516.516 0 0 1 .294-.906l6.941-.557a.515.515 0 0 0 .434-.316l2.674-6.437zm26 0a.515.515 0 0 1 .952 0l2.674 6.437c.074.179.242.3.434.316l6.941.557a.516.516 0 0 1 .294.906l-5.288 4.536a.515.515 0 0 0-.166.511l1.616 6.782a.516.516 0 0 1-.77.56l-5.942-3.634a.516.516 0 0 0-.538 0l-5.942 3.634a.516.516 0 0 1-.77-.56l1.616-6.782a.515.515 0 0 0-.166-.511l-5.288-4.536a.516.516 0 0 1 .294-.906l6.941-.557a.515.515 0 0 0 .434-.316l2.674-6.437zm26 0a.515.515 0 0 1 .952 0l2.674 6.437c.074.179.242.3.434.316l6.941.557a.516.516 0 0 1 .294.906l-5.288 4.536a.515.515 0 0 0-.166.511l1.616 6.782a.516.516 0 0 1-.77.56l-5.942-3.634a.516.516 0 0 0-.538 0l-5.942 3.634a.516.516 0 0 1-.77-.56l1.616-6.782a.515.515 0 0 0-.166-.511l-5.288-4.536a.516.516 0 0 1 .294-.906l6.941-.557a.515.515 0 0 0 .434-.316l2.674-6.437zm26 0a.515.515 0 0 1 .952 0l2.674 6.437c.074.179.242.3.434.316l6.941.557a.516.516 0 0 1 .294.906l-5.288 4.536a.515.515 0 0 0-.166.511l1.616 6.782a.516.516 0 0 1-.77.56l-5.942-3.634a.516.516 0 0 0-.538 0l-5.942 3.634a.516.516 0 0 1-.77-.56l1.616-6.782a.515.515 0 0 0-.166-.511l-5.288-4.536a.516.516 0 0 1 .294-.906l6.941-.557a.515.515 0 0 0 .434-.316l2.674-6.437z"/><mask id="a" width="24" height="26" x="0" y="0" maskUnits="userSpaceOnUse"><path fill="#fff" fill-rule="evenodd" d="M0 .495h23.305v24.764H0V.495z" clip-rule="evenodd"/></mask><g mask="url(#a)"><path fill="#4285F4" fill-rule="evenodd" d="M12.13 11.762v3.385h7.814c-.24 1.898-.85 3.288-1.781 4.265-1.142 1.183-2.923 2.476-6.033 2.476-4.809 0-8.569-4.017-8.569-8.997 0-4.98 3.76-8.998 8.57-8.998 2.59 0 4.491 1.059 5.886 2.421l2.299-2.38C18.376 1.98 15.77.494 12.13.494 5.54.495 0 6.054 0 12.878 0 19.7 5.54 25.259 12.13 25.259c3.56 0 6.245-1.21 8.344-3.467 2.152-2.229 2.83-5.38 2.83-7.91 0-.785-.054-1.514-.173-2.12H12.13z" clip-rule="evenodd"/></g><path fill="#EA4335" fill-rule="evenodd" d="M32.728 21.852c-2.262 0-4.215-2.016-4.215-4.893 0-2.905 1.953-4.893 4.215-4.893 2.261 0 4.215 1.988 4.215 4.893 0 2.877-1.954 4.893-4.215 4.893zm0-12.969c-4.125 0-7.492 3.392-7.492 8.076 0 4.643 3.367 8.076 7.492 8.076 4.124 0 7.491-3.42 7.491-8.076 0-4.684-3.367-8.076-7.491-8.076z" clip-rule="evenodd"/><path fill="#4285F4" fill-rule="evenodd" d="M66.438 21.89c-2.272 0-4-2.091-4-4.907 0-2.858 1.728-4.908 4-4.908 2.245 0 4 2.092 4 4.936.013 2.83-1.755 4.879-4 4.879zm3.78-11.194h-.116c-.735-.948-2.155-1.813-3.949-1.813-3.742 0-7.007 3.528-7.007 8.1 0 4.544 3.265 8.099 7.007 8.099 1.794 0 3.214-.864 3.95-1.84h.115v1.129c0 3.095-1.535 4.754-4 4.754-2.013 0-3.265-1.562-3.781-2.886l-2.865 1.282c.826 2.148 3.007 4.782 6.646 4.782 3.858 0 7.123-2.453 7.123-8.434V9.301h-3.123v1.395z" clip-rule="evenodd"/><path fill="#F8BB15" fill-rule="evenodd" d="M49.289 21.852c-2.262 0-4.215-2.016-4.215-4.893 0-2.905 1.953-4.893 4.215-4.893 2.262 0 4.215 1.988 4.215 4.893 0 2.877-1.953 4.893-4.215 4.893zm0-12.969c-4.125 0-7.492 3.392-7.492 8.076 0 4.643 3.367 8.076 7.492 8.076s7.492-3.42 7.492-8.076c0-4.684-3.367-8.076-7.492-8.076z" clip-rule="evenodd"/><path fill="#32A852" fill-rule="evenodd" d="M76.496 25.035h3.154V.808h-3.154v24.227z" clip-rule="evenodd"/><path fill="#EA4335" fill-rule="evenodd" d="M90.201 11.913c1.365 0 2.53.737 2.916 1.78l-6.959 3.016c0-3.392 2.293-4.796 4.043-4.796zm.238 9.939c-1.723 0-2.942-.82-3.737-2.447L97 14.943l-.345-.917c-.636-1.807-2.597-5.143-6.587-5.143-3.963 0-7.263 3.267-7.263 8.076 0 4.53 3.26 8.076 7.634 8.076 3.526 0 5.567-2.266 6.415-3.573l-2.624-1.834c-.875 1.334-2.068 2.224-3.79 2.224z" clip-rule="evenodd"/></svg>