<svg xmlns="http://www.w3.org/2000/svg" width="159" height="35" fill="none" viewBox="0 0 159 35"><g fill="#A5B1C4" clip-path="url(#a)"><path d="M13.986 29.79h-2.187c-.108 0-.197-.005-.27-.117-.802-1.26-1.853-2.314-2.91-3.359-1.39-1.371-2.83-2.69-4.132-4.139-1.396-1.552-2.65-3.207-3.445-5.15-1.435-3.5-1.44-6.99.314-10.387C2.58 4.271 4.541 2.645 6.94 1.523 9.523.317 12.256-.137 15.1.033c2.555.157 4.963.811 7.17 2.12 2.79 1.659 4.683 4.007 5.405 7.19.737 3.24.202 6.306-1.445 9.19-1.046 1.836-2.422 3.408-3.897 4.906-1.282 1.303-2.638 2.529-3.906 3.847-.713.742-1.396 1.508-1.941 2.382-.07.112-.157.117-.27.117-.743.005-1.49.005-2.231.005zm2.471-21.253a27.02 27.02 0 0 0-.167-3.676c-.157-1.269-.422-2.513-.909-3.704-.069-.166-.157-.225-.324-.225-.6 0-1.194.02-1.794-.015-.368-.02-.526.137-.663.45-.782 1.762-1.072 3.621-1.165 5.52-.118 2.314.069 4.613.354 6.907.359 2.895.904 5.76 1.39 8.635.286 1.699.575 3.397.61 5.125.005.22.142.147.25.151.114.005.246.054.246-.16.005-1.29.177-2.563.359-3.832.408-2.86.914-5.711 1.287-8.577.27-2.186.497-4.383.526-6.599zM18.32 1.84c.398.635.717 1.245.978 1.884 1.022 2.485 1.11 5.057.756 7.668-.255 1.904-.752 3.754-1.336 5.585-.757 2.377-1.68 4.69-2.497 7.043-.398 1.152-.776 2.309-1.027 3.505-.014.063-.078.141.02.19.162.083.383-.02.428-.195.014-.064.029-.127.049-.19.363-1.367 1.027-2.592 1.754-3.793.988-1.63 2.098-3.178 3.11-4.793.905-1.445 1.735-2.924 2.305-4.535.713-2.016.92-4.066.369-6.155-.491-1.86-1.47-3.456-2.673-4.94-.33-.405-.688-.742-1.19-.927-.329-.113-.643-.274-1.046-.347zm-8.625 0a3.277 3.277 0 0 0-1.041.366c-.177.098-.389.117-.531.283C7.317 3.402 6.59 4.373 6 5.437c-1.233 2.226-1.666 4.579-1.16 7.088.335 1.66.998 3.187 1.804 4.661.845 1.553 1.838 3.012 2.791 4.5 1.2 1.87 2.428 3.73 2.973 5.922.054.22.25.097.369.097.147-.004.054-.131.039-.2-.33-1.572-.865-3.08-1.41-4.583-.865-2.407-1.799-4.789-2.507-7.249-.6-2.084-1.051-4.193-1.115-6.37-.054-1.84.177-3.631.845-5.36.28-.717.634-1.405 1.066-2.103zm110.017 13.75c.668-.922 1.499-1.625 2.629-1.889 1.356-.312 2.717-.287 4.039.166 1.558.537 2.388 1.714 2.737 3.266.177.796.246 1.606.246 2.421 0 2.187-.02 4.379.01 6.565a1.413 1.413 0 0 1-1.14 1.43c-.619.118-1.209.083-1.686-.4a1.218 1.218 0 0 1-.373-.893c.005-2.328 0-4.652 0-6.98 0-.41-.044-.81-.148-1.206-.245-.976-.879-1.508-1.896-1.572-.384-.024-.772-.034-1.15.064-.885.23-1.332.854-1.529 1.694-.093.405-.108.82-.108 1.235v6.59c0 .775-.393 1.293-1.15 1.464-.599.136-1.174.078-1.661-.342a1.18 1.18 0 0 1-.427-.942c.005-2.285.005-4.574 0-6.858 0-.532-.054-1.055-.236-1.557-.295-.806-.889-1.245-1.73-1.343a3.976 3.976 0 0 0-1.248.054c-.88.186-1.317.771-1.499 1.606-.098.44-.108.883-.108 1.332 0 2.187-.024 4.379.01 6.566.015.966-.683 1.571-1.641 1.542-.408-.015-.791-.107-1.116-.38-.319-.269-.486-.596-.481-1.02.005-2.285-.005-4.574.009-6.859.005-.918.099-1.835.379-2.714.56-1.752 1.798-2.719 3.587-3.011 1.022-.166 2.054-.181 3.067.082 1.012.264 1.808.845 2.432 1.67.049.063.098.132.143.195.004.01.014.015.039.024zm-55.215 6.029c0 2.186.005 4.378 0 6.565-.005.918-.167 1.806-.614 2.626-.688 1.255-1.799 1.933-3.15 2.28-.963.248-1.941.273-2.924.229-.737-.034-1.47-.093-2.187-.278-.816-.21-1.331-1.196-1.032-1.972.216-.557.85-.87 1.617-.786.408.044.81.112 1.219.151.8.069 1.602.151 2.388-.073.865-.244 1.415-.913 1.45-1.81.03-.723.014-1.45.02-2.173 0-.068.024-.151-.074-.186-.084-.024-.114.044-.153.093-.82.908-1.862 1.274-3.061 1.289-.767.01-1.524-.04-2.256-.269-1.553-.483-2.418-1.581-2.776-3.119a10.113 10.113 0 0 1-.241-2.274c-.005-2.319.02-4.637-.015-6.956-.014-.864.664-1.391 1.332-1.48.339-.043.683-.033 1.017.089.58.22.9.673.904 1.284v7.102c0 .43.05.859.187 1.269.236.698.708 1.132 1.435 1.284.845.175 1.68.156 2.457-.254.806-.425 1.248-1.084 1.248-2.021-.005-2.44 0-4.881 0-7.322 0-.8.354-1.245 1.155-1.41.423-.088.85-.083 1.248.107.521.249.816.644.816 1.245-.015 2.264-.01 4.52-.01 6.77zm82.075 3.705v-6.297c0-1.167.231-2.275.904-3.256.777-1.132 1.887-1.777 3.204-2.074 1.504-.342 3.013-.337 4.472.18 2.054.728 3.234 2.226 3.691 4.315a6.76 6.76 0 0 1 .152 1.572c-.025.99.064 1.982-.098 2.968-.315 1.894-1.111 3.5-2.959 4.31-1.739.761-3.508.859-5.189-.244a3.677 3.677 0 0 1-.614-.518c-.069-.068-.128-.151-.246-.112-.142.044-.088.161-.088.244-.005 1.796-.025 3.593.005 5.394.019.957-.757 1.489-1.465 1.494-.535.004-1.022-.093-1.41-.489a1.224 1.224 0 0 1-.359-.903v-6.584zm9.185-4.598c0-.596.009-.991 0-1.392-.035-1.327-.885-2.425-2.153-2.762a3.843 3.843 0 0 0-2.452.156c-.884.351-1.346 1-1.351 1.947-.005 1.148-.015 2.295.014 3.442.025 1.127.698 1.986 1.76 2.328.442.142.894.17 1.356.151a2.908 2.908 0 0 0 2.693-2.084c.196-.65.118-1.318.133-1.786zm-87.962 4.549c0-2.187-.015-4.374.004-6.565.015-1.362.448-2.583 1.42-3.578.792-.806 1.775-1.26 2.87-1.48 1.455-.287 2.9-.273 4.305.23 2.035.727 3.268 2.206 3.646 4.286.344 1.913.36 3.851-.216 5.745-.638 2.099-2.285 3.402-4.481 3.617-1.072.102-2.109.039-3.057-.527a4.561 4.561 0 0 1-.943-.732c-.079-.079-.148-.152-.27-.098-.114.049-.074.151-.074.234 0 1.82-.025 3.646.01 5.467.014.82-.703 1.391-1.377 1.42-.525.02-1.012-.048-1.415-.414-.28-.254-.427-.557-.422-.942.004-2.221 0-4.442 0-6.663zm3.199-4.998c.02.649-.03 1.303.039 1.952.079.78.383 1.435 1.061 1.884.62.41 1.308.518 2.035.488 1.47-.058 2.658-1.152 2.806-2.601.088-.88.059-1.758.03-2.631-.035-.972-.409-1.811-1.239-2.373-1.012-.683-2.118-.688-3.238-.312-.89.298-1.41.903-1.475 1.86-.034.58 0 1.157-.02 1.732zm20.688-.821l-3.607 4.623c-.654.835-1.302 1.67-1.956 2.504a2.582 2.582 0 0 0-.236.366c-.265.556-.781.64-1.322.659a2.127 2.127 0 0 1-.629-.088c-.53-.151-.796-.508-.796-1.054V14.873c0-.556.26-.903.796-1.054a2.21 2.21 0 0 1 1.376.029c.442.156.673.468.673.937v7.307c.094-.01.114-.088.153-.136 1.803-2.426 3.602-4.852 5.41-7.268.315-.42.674-.786 1.229-.904.476-.102.914-.01 1.317.22.255.146.388.41.388.718v11.91c0 .337-.157.61-.457.756-.506.244-1.052.313-1.597.147-.477-.142-.742-.527-.742-1.025v-7.054zm47.165 1.86c-1.277 0-2.334.005-3.39-.005-.212-.005-.251.064-.246.259.01.464-.005.927.128 1.377.314 1.069 1.199 1.786 2.358 1.898a7.854 7.854 0 0 0 2.389-.141c.437-.093.815-.318 1.208-.523.231-.122.467-.22.742-.22.9.006 1.45.923 1.013 1.714-.236.425-.605.727-1.017.967-1.229.722-2.575 1.005-3.991.961-1.607-.054-3.051-.547-4.26-1.616-1.15-1.01-1.74-2.294-1.754-3.821-.01-.977-.01-1.953 0-2.93a5.784 5.784 0 0 1 5.145-5.7c1.567-.181 3.066.024 4.398.956 1.189.835 1.867 1.992 2.142 3.398.138.693.167 1.386.01 2.079-.192.84-.693 1.25-1.568 1.313-1.174.078-2.353.005-3.307.034zm-.87-2.377c.87 0 1.735 0 2.605-.005.074 0 .187.059.196-.098.05-.878-.172-1.644-.928-2.176-.654-.46-1.391-.567-2.172-.513-.762.059-1.371.38-1.828.99-.349.47-.521 1.002-.61 1.573-.029.175-.014.234.192.234.845-.015 1.695-.005 2.545-.005zm-92.158.751c0 2.124-.03 4.247.015 6.37.02.938-.649 1.563-1.612 1.548-.354-.005-.703-.063-1.003-.268-.417-.279-.624-.66-.624-1.172.005-4.344 0-8.688.01-13.028 0-.239-.044-.312-.3-.307-1.007.014-2.014.014-3.022 0-1.056-.015-1.685-.874-1.4-1.89.167-.59.717-.985 1.42-.985 1.18-.005 2.359 0 3.538 0h6.413c.123 0 .246-.005.368.005a1.454 1.454 0 0 1 1.165 2.25c-.27.43-.693.615-1.184.62-1.18.014-2.359.014-3.538.005-.197 0-.241.053-.241.244 0 2.201-.005 4.407-.005 6.609zm54.9.777c.005.747-.044 1.42.108 2.074.329 1.44 1.381 2.177 2.949 2.09a5.25 5.25 0 0 0 2.049-.518c.943-.464 1.901-.054 2.137.893.094.386.015.737-.206 1.07-.339.507-.821.839-1.386 1.039-1.784.64-3.597.698-5.386.088-1.916-.654-2.983-2.07-3.36-4.022a7.885 7.885 0 0 1-.143-1.699c.014-.966-.045-1.938.044-2.904.275-2.895 2.059-4.652 4.767-5.013 1.203-.161 2.398-.132 3.567.244.629.2 1.199.512 1.686.961.432.39.525.884.412 1.426-.118.551-.471.898-1.012 1.044-.427.118-.825-.005-1.209-.19-.447-.215-.889-.444-1.385-.532-.644-.117-1.288-.117-1.912.107-1.091.386-1.523 1.255-1.671 2.319-.078.532-.034 1.069-.049 1.523zM14 34.754h-1.376c-.314 0-.447-.127-.452-.444-.005-.332 0-.669 0-1 0-.147.034-.294-.133-.41-.103-.074-.054-.215.079-.27.059-.024.128-.019.192-.019h3.39c.064 0 .138-.005.192.02.133.053.187.19.088.268-.167.127-.132.279-.132.435-.005.307 0 .62 0 .927 0 .38-.118.498-.497.498-.452-.005-.899-.005-1.351-.005z"/></g><defs><clipPath id="a"><path fill="#fff" d="M0 0h158.884v34.729H0z" transform="scale(1.00073)"/></clipPath></defs></svg>