<svg xmlns="http://www.w3.org/2000/svg" width="112" height="40" fill="none" viewBox="0 0 112 40"><path fill="#A5B5C4" d="M27.214 9.715c-.612-1.668-2.124-3.268-3.32-3.415-1.68-.237-2.233.72-2.876.987-.78-.454-1.147-1.748-3.261-.504-2.116 1.243-6.92 12.496-5.723 15.793 1.195 3.297 4.487 4.817 7.679 4.827 5.456 0 11.286-7.561 7.491-17.768l.01.08zm-1.612 1.204c2.353 6.407-2.084 13.04-6.186 13.03-1.255 0-3.953-.572-4.546-2.201-.889-2.4-.325-3.525.523-5.123.475 1.283 1.414 3.79 2.471 3.79 2.432 0-.445-3.14.485-5.537 1.226-3.11 4.062-5.192 5.277-5.065a2.599 2.599 0 0 1 1.977 1.105zm46.786-1.214c-.622-1.668-2.125-3.257-3.32-3.415-1.681-.238-2.234.72-2.876.987-.781-.454-1.146-1.747-3.261-.504-2.115 1.244-6.917 12.497-5.723 15.794 1.197 3.297 4.487 4.817 7.68 4.827 5.455 0 11.287-7.56 7.492-17.767l.008.078zm-1.61 1.204c2.352 6.407-2.085 13.04-6.177 13.03-1.256 0-3.952-.572-4.546-2.2-.889-2.39-.325-3.525.523-5.114.485 1.283 1.415 3.79 2.472 3.79 2.43 0-.445-3.14.483-5.537 1.236-3.11 4.062-5.192 5.278-5.065a2.592 2.592 0 0 1 1.977 1.105l-.01-.009zM43.65 18.62c.446 1.283-.355 1.539-2.658 2.369.287 2.961 1.839 8.192-1.413 8.114a1.977 1.977 0 0 1-2.095-1.373c-.355-1.055 0-.986.414-2.042a9.44 9.44 0 0 0 .545-4.551c-.989.267-2.965.227-3.845.375.514 2.389 1.769 6.909-1.058 6.909-1.096 0-1.976-.8-2.45-2.201-.356-.987.365-2.577.434-4.244-.275.015-.55.047-.82.098-1.334.276-2.47-2.567 0-3.317.27-.034.542-.034.81 0-.375-5.271-.276-3.495.209-14.106 0-1.52-.148-3.257 1.442-3.257a2.223 2.223 0 0 1 2.47 1.747c.575 1.52-1.047 4.699-1.5 8.37a29.432 29.432 0 0 0 0 7.167c1.452.075 2.91 0 4.348-.217.178-3.602.989-10.69.9-12.831a1.114 1.114 0 0 1 .939-1.255c1.086.158 1.432 1.224 1.787 2.172.988 2.537-.988 9.092-1.275 11.519a4.074 4.074 0 0 1 1.651-.109 1.048 1.048 0 0 1 1.176.613l-.01.05zM98.371 7.504a1.788 1.788 0 0 1 1.482-.988c1.107 0 1.651 1.126 1.809 7.63.138 5.153-.811 8.174.75 8.183 1.185 0 3.311-3.73 3.755-4.6 1.395-2.704 1.424-5.41 2.58-7.63.396-.77.988-1.609 1.69-1.609.355 0 .682 1.392.988 1.975 0 0 1.294 12.358 0 14.934-.503.987-.849 1.482-1.789 1.482-2.402 0 .741-8.5-.612-11.49a20.613 20.613 0 0 1-1.849 4.442c-1.452 3.02-4.683 6.594-6.335 6.554-1.65-.04-1.611-1.668-1.552-3.505.139-3.533.573-8.014.08-12.1-.199-1.54-1.474-2.261-.99-3.258l-.007-.02zm.809-4.78c.129.414.237 1.472-.198 1.235a14.768 14.768 0 0 1-2.599-.414c-1.106-.08-2.036 0-2.135.414a4.06 4.06 0 0 1 1.73 2.339 60.706 60.706 0 0 1-.693 9.27 50.453 50.453 0 0 1-.346 5.97c.108 3.04.434 4.581.434 5.559-.197.641-.78.413-.987.986-.88.188-.988-.829-1.156-1.973-.129-.83-.299-1.916-.356-2.488a3.286 3.286 0 0 1-.268-2.33 28.752 28.752 0 0 1-.393-3.495c-.288-2.586-.337-7.66-.05-8.488-.12-2.143.079-3.337-.12-4.848-.147-.938-2.045-.108-2.46-.108-1.205.306-4.596 2.25-3.814-.494a4.174 4.174 0 0 1 .445-2.37c.394-1.203 2.56-.936 3.508-1.193 1.975.267 3.953-.366 6.009-.099.8-.266 2.065.297 2.896.297.662.562.336 1.323.583 2.221l-.03.01zm-85.645-.137c.13.416.238 1.471-.198 1.234a14.774 14.774 0 0 1-2.6-.413c-1.096-.08-2.025 0-2.134.413a4.05 4.05 0 0 1 1.722 2.341 60.54 60.54 0 0 1-.683 9.268 50.75 50.75 0 0 1-.346 5.973c.109 3.04.435 4.58.435 5.557-.197.641-.781.413-.988.987-.88.187-.988-.83-1.166-1.974-.13-.83-.297-1.916-.356-2.478a3.271 3.271 0 0 1-.267-2.33 29.186 29.186 0 0 1-.395-3.495c-.285-2.586-.336-7.66-.05-8.488-.118-2.143.08-3.337-.118-4.848-.148-.937-2.046-.108-2.46-.108-1.206.297-4.596 2.25-3.816-.503a4.145 4.145 0 0 1 .455-2.36C.956.161 3.13.426 4.08.17c1.975.267 3.952-.365 6.007-.098.801-.267 2.066.296 2.886.296.662.563.336 1.322.584 2.221l-.022-.002zM82.005 5.5c2.096-.475 3.578.08 3.953 1.411a7.016 7.016 0 0 1 1.206 3.07c.159 1.499.202 3.006.129 4.51a3.17 3.17 0 0 1-.524 2.43 2.423 2.423 0 0 1-1.978.404h-.149v-.15c-.71-2.535-.77-5.466-.375-6.503.396-1.037.287-1.747-.305-2.113a3.79 3.79 0 0 0-3.687.584c-.781.867-1.858 2.457-2.263 6.247.174.703.273 1.42.297 2.143l.158 1.342a7.984 7.984 0 0 0 1.512 2.734l.989 1.382c.248.093.484.216.702.366a3.95 3.95 0 0 0 2.193.839c1.641.177 3.133-.987 4.33-1.895l.07-.06a.838.838 0 0 1 0-.118.372.372 0 0 1 .155-.335.416.416 0 0 1 .496.099 1.063 1.063 0 0 1 .217 1.244l-.593.868-.346.495-.079.088-.919.623a9.513 9.513 0 0 1-1.452.987 6.309 6.309 0 0 1-4.102.316l-.82-.1c-2.174-.443-4.42-3.118-5.09-6.09v-.088a13.885 13.885 0 0 1 .178-7.571 5.453 5.453 0 0 1 1.385-2.963c.167-1.126 2.706-3.671 4.851-4.175l-.138-.021zM59.572 27.235a1.972 1.972 0 0 1-.385 1.975c-1.859 1.46-3.43 1.204-5.002-1.086-1.512-1.836-2.965-3.8-3.3-4.294-.543-.227-1.928-2.872-2.57-3.326-.405 2.21-.8 5.38-.119 7.67-.276.72-1.383.454-1.975.355-.584-1.442-.317-5.756-.278-8.036 0-1.145.278-1.046 0-1.57-.256-.236.08-7.442 0-8.487a3.106 3.106 0 0 1 2.303-3.624c1.611.63.988 2.961.732 3.889.06 2.556-.81 4.935-.523 7.58 1.778-1.342 2.965-3.523 4.023-4.935a16.406 16.406 0 0 0 2.856-5.519c0-.354-1.67-.888.405-1.973a3.833 3.833 0 0 1 2.037-.79c.475-.117.612-.424.988.297.188 1.668-.168 3.168-.692 3.464-1.186 2.804-2.639 3.85-2.54 4.177-.207.492-2.767 3.266-2.904 3.819-.99.82-1.286 1.076-1.217 1.699 1.492 1.974 3.192 5.655 4.942 7.718.702 1.098 1.452 1.196 2.114.988.161-.06.317-.135.465-.227a.515.515 0 0 1 .681.252l.01.025m8.873 4.511v1.589h-1.641v4.472h-2.352v-4.472h-1.64v-1.59h5.633z"/><path fill="#A5B5C4" d="M72.478 38.222a6.19 6.19 0 0 1-.305.701c-.135.25-.325.466-.554.632a1.86 1.86 0 0 1-.801.365c-.261.046-.526.07-.79.07a6.74 6.74 0 0 1-.742 0l-.405-.06v-1.708c.156.038.315.065.475.08h.86a.826.826 0 0 0 .364-.109l.108-.1a.263.263 0 0 0 .06-.147v-.109l-2.274-6.001h2.551l.988 3.227 1.057-3.227h1.731l-2.323 6.386zm2.925 1.55v-7.986h2.215v.88a1.96 1.96 0 0 1 .573-.642c.177-.122.375-.213.584-.267.224-.06.457-.09.692-.088a1.81 1.81 0 0 1 .928.217c.254.153.473.357.642.601.124.179.226.37.306.572.08.192.142.391.188.593.042.191.068.386.08.583v.532a6.137 6.137 0 0 1-.13 1.204c-.082.41-.254.798-.501 1.135-.21.304-.503.544-.842.692-.42.17-.88.212-1.324.119a1.886 1.886 0 0 1-.424-.15 1.589 1.589 0 0 1-.384-.256 1.353 1.353 0 0 1-.247-.305v2.576h-2.353v-.01h-.003zm2.353-4.352a3.29 3.29 0 0 0 0 .444.87.87 0 0 0 .109.335c.05.07.105.137.167.198a.5.5 0 0 0 .365.127.672.672 0 0 0 .376-.108c.132-.1.231-.24.286-.395.06-.156.095-.319.108-.484v-.73c.019-.25.019-.5 0-.75a1.476 1.476 0 0 0-.127-.433.722.722 0 0 0-.287-.346.717.717 0 0 0-.346-.1.615.615 0 0 0-.455.178.629.629 0 0 0-.187.367c-.009.124-.009.25 0 .374v1.322h-.01l.001.001zm7.185-3.633v2.556c.008.085.008.171 0 .256a.996.996 0 0 0 .129-.167v-.088l1.234-2.133v-.424h2.352v6.061h-2.352V35.36c.004-.156.024-.312.06-.465l-.05.109v.129l-.088.157-1.186 2.133v.424h-2.482v-6.06h2.383zm4.684 1.847a2.634 2.634 0 0 1 .721-1.265c.293-.233.629-.404.99-.503.463-.14.947-.207 1.432-.196.282-.002.563.02.84.067.237.041.468.106.692.198.218.08.421.193.604.336.139.111.262.24.365.385a1.2 1.2 0 0 1 .187.375c.013.106.013.212 0 .317-.01.351-.15.686-.397.938a1.39 1.39 0 0 1-.81.385c.163.035.324.088.476.158.146.064.283.151.404.258.134.125.236.28.297.454.171.461.109.975-.167 1.382a2.056 2.056 0 0 1-.642.641 2.907 2.907 0 0 1-.693.267 5.227 5.227 0 0 1-1.315.128 6.643 6.643 0 0 1-1.117-.1 2.512 2.512 0 0 1-.988-.405l-.258-.196a1.97 1.97 0 0 1-.286-.307c-.1-.13-.183-.273-.247-.424a1.945 1.945 0 0 1-.138-.553l1.977-.287c.011.1.034.201.07.297a.7.7 0 0 0 .156.256.78.78 0 0 0 .299.188c.107.038.22.058.335.059a.688.688 0 0 0 .533-.198.583.583 0 0 0 .168-.425.463.463 0 0 0-.217-.425.548.548 0 0 0-.276-.099h-.831v-1.184h.82a.636.636 0 0 0 .277-.139.474.474 0 0 0 .167-.374.51.51 0 0 0-.198-.404.658.658 0 0 0-.414-.12.916.916 0 0 0-.642.257 1.065 1.065 0 0 0-.297.604l-1.877-.346zm9.853-1.847l.93 3.139.929-3.139h2.964v6.061h-2.114v-3.9a2.032 2.032 0 0 1 0-.246v-.346a.208.208 0 0 0 0 .078.35.35 0 0 1 0 .08v.099a.627.627 0 0 0 0 .137.492.492 0 0 1 0 .108l-1.146 3.949h-1.385l-1.205-3.948v-.286l-.079-.227v4.491h-1.728v-6.06h2.965l-.13.01zm5.97 1.777c.071-.335.224-.648.445-.908.164-.186.35-.352.553-.494.163-.109.338-.195.523-.258a4.037 4.037 0 0 1 1.126-.217h1.285c.251.02.499.068.741.138.231.07.447.176.641.317.204.146.37.338.486.562.115.217.184.454.207.7v3.674c.027.258.08.512.158.76h-2.174c0-.08 0-.188-.05-.317a3.81 3.81 0 0 1 0-.523c-.074.108-.156.21-.246.306a1.59 1.59 0 0 1-.387.305 2.527 2.527 0 0 1-.572.238c-.254.07-.517.104-.781.1a2.656 2.656 0 0 1-.988-.167 1.926 1.926 0 0 1-.662-.425 1.565 1.565 0 0 1-.465-1.106c.001-.27.058-.54.168-.79a1.72 1.72 0 0 1 .514-.661c.185-.15.392-.269.612-.355.245-.095.496-.171.751-.227a8.68 8.68 0 0 1 .781-.139l.721-.078h.435V33.9a2.02 2.02 0 0 0 0-.246.48.48 0 0 0-.325-.405 1.1 1.1 0 0 0-.376-.05c-.14-.004-.28.016-.414.06a.827.827 0 0 0-.278.157.692.692 0 0 0-.225.435l-2.204-.287zm3.428 1.5c-.216.03-.429.087-.631.168a1.503 1.503 0 0 0-.268.138.7.7 0 0 0-.258.297.839.839 0 0 0-.068.316.494.494 0 0 0 .168.385.72.72 0 0 0 .484.15c.183.005.365-.04.524-.13a.835.835 0 0 0 .286-.306 1.08 1.08 0 0 0 .119-.375 3.194 3.194 0 0 0 0-.366v-.345l-.356.068z"/></svg>