<svg xmlns="http://www.w3.org/2000/svg" width="198" height="34" fill="none" viewBox="0 0 198 34"><path fill="#A5B5C4" d="M66.115 13.33a.546.546 0 0 1-.72.346c-.913-.353-1.946-.605-2.912-.605-1.661 0-3.227.5-3.227 2.169 0 .9.5 1.368 2.098 1.87l1.164.365c2.33.733 3.329 1.801 3.329 3.868 0 3.569-2.497 6.005-7.02 6.005-1.778 0-3.299-.28-4.588-.73-.314-.11-.465-.459-.372-.779l.533-1.851c.088-.307.43-.452.725-.333 1.165.472 2.457.792 3.6.792 2.032 0 3.46-.7 3.46-2.337 0-.967-.664-1.332-2.162-1.8l-1.265-.4c-2.23-.734-3.229-2.069-3.229-4.203 0-3.637 3.03-5.603 7.022-5.603 1.201 0 2.574.269 3.718.663.316.107.469.459.372.778l-.526 1.786zm7.863-9.521c.311 0 .542.283.485.588l-2.45 12.69c2.308-1.688 4.324-3.671 6.105-5.973a1.197 1.197 0 0 1 .948-.466h2.665c.256 0 .398.29.251.5-1.751 2.476-3.755 4.76-5.876 6.605l3.375 8.516a.41.41 0 0 1-.379.559h-2.83a.86.86 0 0 1-.805-.562l-2.322-6.344c-.624.421-1.268.811-1.93 1.168l-.986 5.149a.73.73 0 0 1-.71.589h-2.432a.49.49 0 0 1-.482-.59l4.23-21.84a.726.726 0 0 1 .712-.59h2.431v.001zm12.448 6.838c.31 0 .543.285.484.59l-1.649 8.519c-.133.633-.266 1.434-.266 2.202 0 1 .565 1.668 1.896 1.668 1.298 0 2.827-.567 3.96-1.634l2.115-10.755a.731.731 0 0 1 .712-.59h2.432c.31 0 .542.284.481.59l-2.18 11.22c-.266 1.301-.565 2.77-.83 3.937C92.315 31.665 89.92 34 85.128 34c-1.055 0-2.106-.132-3.02-.378a.647.647 0 0 1-.465-.772l.416-1.704a.582.582 0 0 1 .696-.436c.69.166 1.48.288 2.207.288 2.83 0 4.492-1.202 5.09-4.47l.236-1.235c-1.231 1.067-3.063 1.768-4.792 1.768-2.796 0-4.293-1.4-4.293-3.636 0-1.334.267-2.803.565-4.335l1.517-7.851a.73.73 0 0 1 .711-.591h2.43v-.001zm21.955 2.696a.545.545 0 0 1-.72.346c-.912-.353-1.947-.607-2.911-.607-1.662 0-3.226.503-3.226 2.17 0 .9.497 1.368 2.094 1.87l1.166.365c2.328.733 3.328 1.801 3.328 3.87 0 3.568-2.497 6.005-7.02 6.005-1.776 0-3.3-.281-4.586-.731-.315-.11-.466-.46-.374-.78l.534-1.85c.088-.308.43-.453.725-.334 1.165.472 2.456.792 3.599.792 2.03 0 3.461-.7 3.461-2.336 0-.967-.664-1.333-2.161-1.801l-1.268-.4c-2.228-.734-3.226-2.068-3.226-4.203 0-3.637 3.028-5.603 7.022-5.603 1.202 0 2.572.27 3.718.663.313.108.465.459.37.778l-.525 1.786zm14.202.366a.5.5 0 0 1-.485.355.498.498 0 0 1-.208-.05c-.876-.402-1.867-.631-2.996-.631-3.526 0-5.659 3.037-5.659 6.907.034 2.303.866 3.837 3.463 3.87 1.149.028 2.348-.205 3.433-.58.265-.09.555.096.523.375l-.229 1.944a.983.983 0 0 1-.651.82c-1.206.42-2.52.642-4.008.642-4.327 0-6.356-2.467-6.356-6.539 0-5.768 3.261-10.705 9.516-10.705 1.516 0 2.798.283 3.839.732a.707.707 0 0 1 .391.843l-.573 2.017zm2.651-1.86a.865.865 0 0 1 .582-.803c1.594-.533 3.606-.93 5.355-.93 3.327 0 5.49 1.001 5.49 3.903 0 .6-.1 1.335-.265 2.135l-1.297 6.838c-.201 1.026-.102 1.6.341 1.825.271.137.499.399.437.698l-.195.96a.96.96 0 0 1-.724.756 6.081 6.081 0 0 1-1.191.132c-1.5 0-2.23-.701-2.329-1.936h-.1c-1.097 1.202-2.76 1.936-4.726 1.936-2.827 0-4.657-1.433-4.657-4.302 0-3.87 3.062-6.64 9.916-6.64h.9c.098-.5.164-1.001.164-1.367 0-1.335-.666-1.937-2.76-1.937-1.333 0-2.932.32-4.44.834a.407.407 0 0 1-.539-.397l.038-1.705zm6.37 7.173c-3.36 0-5.824 1.1-5.824 3.535 0 1.07.634 1.736 2.064 1.736 1.363 0 2.795-.7 3.693-1.635l.73-3.636h-.663zm11.314-8.374c.321 0 .573.276.541.598l-.109 1.138h.032c1.63-1.369 3.728-2.267 5.757-2.267 2.53 0 4.192 1.466 4.192 3.802 0 1.134-.164 2.067-.364 3.135l-1.751 9.186a.732.732 0 0 1-.711.589h-2.432a.49.49 0 0 1-.482-.59l1.614-8.385c.168-.833.302-1.768.302-2.335 0-1.233-.667-1.867-2.065-1.867-1.529 0-3.261.798-4.491 1.966l-2.018 10.621a.73.73 0 0 1-.708.59h-2.432a.49.49 0 0 1-.48-.373.496.496 0 0 1-.006-.216l2.869-15.002a.725.725 0 0 1 .708-.59h2.034zm16.472 0a.542.542 0 0 1 .516.374.533.533 0 0 1 .025.224l-.11 1.138h.033c1.631-1.369 3.726-2.267 5.755-2.267 2.531 0 4.194 1.466 4.194 3.802 0 1.134-.167 2.067-.365 3.135l-1.752 9.186a.732.732 0 0 1-.711.589h-2.432a.494.494 0 0 1-.485-.59l1.62-8.385c.166-.833.299-1.768.299-2.335 0-1.233-.666-1.867-2.064-1.867-1.53 0-3.26.798-4.492 1.966l-2.016 10.621a.731.731 0 0 1-.711.59h-2.433a.493.493 0 0 1-.486-.59l2.871-15.001a.722.722 0 0 1 .711-.59h2.033zm15.572 9.64c-.057.489-.047.983.033 1.47.3 1.633 1.564 2.434 3.693 2.434 1.486 0 3.046-.23 4.417-.667.264-.084.537.12.501.395l-.221 1.846a.958.958 0 0 1-.616.802c-1.508.528-3.213.793-4.814.793-4.591 0-6.821-1.968-6.821-6.437 0-3.871 1.263-7.44 3.994-9.34 1.364-.97 3.061-1.467 5.19-1.467 3.86 0 5.557 2.199 5.557 5.47 0 1.127-.134 2.627-.444 4.144-.069.336-.379.558-.72.558h-9.749zm6.986-2.634c.17-.631.259-1.282.267-1.936 0-1.501-.664-2.569-2.361-2.569-2.462 0-3.961 1.803-4.493 4.505h6.587zm9.887-7.006a.55.55 0 0 1 .524.373.54.54 0 0 1 .03.225l-.092 1.304h.066c1.232-1.502 3.03-2.269 4.726-2.269.161 0 .323.005.484.015.318.02.497.355.401.659l-.673 2.158c-.107.344-.441.564-.801.579-1.68.072-3.305.554-4.403 1.328l-2.148 11.22a.727.727 0 0 1-.712.589h-2.431a.492.492 0 0 1-.479-.373.494.494 0 0 1-.006-.216l2.87-15.002a.722.722 0 0 1 .708-.59h1.936zm-165.23 3.248c4.503-4.516 10.41-6.76 16.315-6.755h.047c.537 1.263.849 2.61.921 3.98a18.973 18.973 0 0 0-.942-.023l-.026.002-.025-.002a18.92 18.92 0 0 0-13.492 5.604 19.009 19.009 0 0 0-4.146 6.201 19.049 19.049 0 0 0-1.444 7.324l.003.068h-3.953c-.016-5.933 2.224-11.874 6.741-16.4h.001zM50.01 21.47c.028-.31.043-.625.043-.943a9.698 9.698 0 0 0-.964-4.225 15.19 15.19 0 0 0-6.168-1.295 15.095 15.095 0 0 0-10.768 4.453 15.206 15.206 0 0 0-4.443 10.836h3.966c-.017-2.909 1.067-5.82 3.274-8.033a11.168 11.168 0 0 1 7.772-3.28v-.003l.199.002.2-.002v.003c2.447.036 4.883.863 6.889 2.487zm-39.584-4.644l-.002-.016.002.016zm37.894 8.02a7.538 7.538 0 0 0-5.199-2.223v.002l-.2-.002-.2.002v-.002a7.576 7.576 0 0 0-7.411 7.674h3.806c.25-1.275.48-1.92 1.206-2.647a3.607 3.607 0 0 1 2.6-1.049 3.6 3.6 0 0 1 2.6 1.049c.248.249.445.527.605.82a9.527 9.527 0 0 0 2.685-3.077 7.546 7.546 0 0 0-.492-.547zm-32.19 5.383c0-14.02 10.722-25.525 24.394-26.729A11.687 11.687 0 0 0 32.18 0c-6.012 0-10.965 4.533-11.65 10.375a6.595 6.595 0 0 0-3.521-1.015c-3.665 0-7.002 3.676-6.583 7.466a7.11 7.11 0 0 0-8.52 1.469 7.146 7.146 0 0 0-1.853 5.721 7.153 7.153 0 0 0 3.164 5.111c.867.57 1.847.943 2.872 1.094.27.047.549.076.832.076h9.209v-.07.002zm-5.715-13.495l.009.075-.009-.075z"/></svg>