<svg xmlns="http://www.w3.org/2000/svg" width="248" height="38" fill="none" viewBox="0 0 248 38"><path fill="#A5B5C4" fill-rule="evenodd" d="M128.665 28.225l6.243-11.675h.113l6.903 11.675h7.1l-9.163-15.091h-5.996l-8.277 15.09h3.077zM30.498 21.64l9.795-.107c-.11 2.107-1.375 3.283-2.033 3.783-1.62 1.18-3.938 1.283-5.04 1.283-1.619 0-3.02-.207-4.45-.995-.91-.497-1.953-1.337-2.473-2.049l-.44-.605-3.193 1.683c.932.994 2.39 1.987 3.93 2.7 2.364 1.078 4.54 1.34 7.176 1.34 2.81 0 7.183-.366 10.346-2.545 2.203-1.518 3.216-3.595 3.216-5.432 0-1.835-1.013-3.934-3.215-5.433-2.722-1.893-6.708-2.55-10.264-2.55-2.306 0-4.422.208-6.57.95-1.788.578-3.193 1.374-4.62 2.514l3.193 1.656.768-.759c.63-.654 1.701-1.263 2.671-1.626 1.291-.532 2.637-.69 4.039-.69 2.832 0 4.458.844 5.367 1.662.602.52 1.4 1.513 1.592 3.046l-9.794-.138v2.312zm129.801 7.034c2.97 0 7.116-.629 9.895-2.546 2.203-1.495 3.247-3.618 3.247-5.432 0-1.812-1.044-3.934-3.247-5.433-2.779-1.917-6.925-2.55-9.895-2.55-2.947 0-7.125.633-9.931 2.55-2.203 1.5-3.219 3.621-3.219 5.433 0 1.814 1.016 3.937 3.219 5.432 2.806 1.917 6.984 2.546 9.931 2.546zm0-14.123c1.591 0 3.406.322 4.806 1.971 1.131 1.311 1.321 2.834 1.321 4.174 0 1.337-.19 2.833-1.321 4.172-1.4 1.656-3.215 1.97-4.806 1.97-1.6 0-3.417-.314-4.816-1.97-1.126-1.339-1.322-2.835-1.322-4.172 0-1.34.196-2.863 1.322-4.174 1.399-1.649 3.216-1.971 4.816-1.971zm-42.003 2.389c.55.157 1.044.375 1.436.688.736.549 1.342 1.465 1.342 2.934 0 1.5-.606 2.415-1.342 2.966-.392.318-.886.526-1.436.684a7.268 7.268 0 0 1-2.063.288h-.715v-7.844h.715c.746 0 1.432.107 2.063.285zm0 9.48c3.55-.212 5.42-1.003 6.411-1.574 1.87-1.078 2.722-2.608 2.722-4.284 0-2.204-1.513-3.524-2.722-4.251-1.68-1.018-4.048-1.438-6.411-1.575-.631-.051-1.264-.051-1.894-.051h-.689V12.61h-6.353v2.075h-.664c-.632 0-1.267 0-1.898.051-2.393.137-4.754.557-6.411 1.575-1.208.727-2.723 2.047-2.723 4.25 0 1.677.856 3.207 2.723 4.285.967.571 2.835 1.362 6.411 1.574.579.025 1.21.053 1.898.053h.664v2.2h6.353v-2.2h.689c.684 0 1.319-.028 1.894-.053zm-11.498-9.48a7.396 7.396 0 0 1 2.035-.284h.747V24.5h-.747a7.117 7.117 0 0 1-2.035-.288c-.545-.158-1.044-.366-1.432-.684-.736-.55-1.346-1.465-1.346-2.966 0-1.47.61-2.386 1.346-2.934.388-.313.887-.53 1.432-.687zM83.142 28.674c2.948 0 7.124-.629 9.903-2.546 2.174-1.495 3.195-3.618 3.195-5.432 0-1.812-1.021-3.934-3.195-5.433-2.779-1.917-6.955-2.55-9.903-2.55-2.968 0-7.147.633-9.925 2.55-2.2 1.5-3.22 3.621-3.22 5.433 0 1.814 1.02 3.937 3.22 5.432 2.778 1.917 6.957 2.546 9.925 2.546zm0-14.123c1.568 0 3.412.322 4.818 1.971 1.128 1.311 1.32 2.834 1.32 4.174 0 1.337-.192 2.833-1.32 4.172-1.406 1.656-3.25 1.97-4.818 1.97-1.59 0-3.437-.314-4.831-1.97-1.132-1.339-1.302-2.835-1.302-4.172 0-1.34.17-2.863 1.302-4.174 1.394-1.649 3.241-1.971 4.831-1.971zm-23.981.897c.77.023 1.76.157 2.475.575.965.573 1.126 1.363 1.126 1.838 0 .475-.138 1.314-1.182 1.915-.71.446-1.594.578-2.419.63h-3.603v-4.988h2.944c.194 0 .407 0 .66.03zm0 7.243h1.181c3.054 0 5.171-.316 6.687-1.158 1.9-1.073 2.333-2.545 2.333-3.7 0-1.131-.432-2.6-2.333-3.624-1.516-.817-3.547-1.075-6.962-1.075H49.206v15.09h6.352v-5.533h3.603zM14.44 23.873l2.722 4.352h7.095L14.63 13.134H8.747L0 28.224h3.16l2.504-4.35h8.775zM9.98 16.68l3.167 5.14h-6.33l2.997-5.247h.09l.077.107zm162.456-1.262h6.825v12.807h6.353V15.418h6.845v-2.284h-20.023v2.284z" clip-rule="evenodd"/><path fill="#A5B5C4" d="M243.39 5.698c-.42.556-.828 1.044-1.23 1.478-4.701 3.96-12.908 3.623-15.643 3.974-.89.117-1.668.27-2.364.458-.875.19-1.628.434-2.274.813 1.418-1.753 3.702-4.354 5.648-5.557 1.888-1.169 4.072-1.349 5.518-1.464.313-.027.59-.052.816-.082.445-.057.899-.11 1.363-.164 3.488-.408 7.743-.909 11.521-3.853l-3.355 4.397zm-6.528 8.734l.002-.003-.002.003zm-.238.162c-2.531 2.824-7.783 3.121-12.443 3.367-3.029.162-5.741.32-7.469 1.102l.102-.123c.369-.433 1.41-.807 2.557-1.04.649-.131 1.333-.22 1.952-.246l.418-.02c1.328-.06 4.436-.199 7.17-.567 3.488-.471 5.967-1.265 7.721-2.483 0 .004-.005.007-.008.01zm-13.346 4.441c-3.022.177-5.73.35-7.468 1.109.054-.066.106-.127.165-.196l.117-.143c1.527-1.153 4.73-1.335 8.105-1.515 4.072-.218 8.583-.48 11.438-2.41-2.627 2.577-7.78 2.884-12.357 3.155zm-.917 1.063c-2.936.13-5.573.263-7.307.96l-.004.003.056-.075c.037-.043.08-.089.118-.137 1.567-1.087 4.731-1.29 8.073-1.489 4.072-.24 8.588-.513 11.473-2.376-2.595 2.672-7.795 2.91-12.409 3.114zm10.253-1.069c-2.756 1.832-6.956 1.944-10.732 2.038-2.993.076-5.856.16-7.705 1.09a.25.25 0 0 0-.044.02c.124-.153.259-.32.393-.482.017-.012.033-.02.051-.032 1.622-.95 4.63-1.096 7.799-1.237 3.823-.17 8.024-.377 10.904-1.95-.218.19-.438.378-.666.553zm-2.015 1.36c-2.98 1.55-7.055 1.655-10.666 1.736-2.5.056-4.746.122-6.173.684 1.687-1.233 4.826-1.334 8.132-1.414 3.025-.075 6.308-.18 8.966-1.148-.086.052-.172.092-.259.141zm-8.454 2.505c-.899.042-1.77.067-2.598.097l-.063.002c-.079.003-.15.006-.228.007-.038 0-.077.002-.112.003-.039.002-.076.002-.116.005-.032.002-.068.002-.102.002-1.367.047-2.575.098-3.592.2-.62.062-1.164.144-1.63.255a5.16 5.16 0 0 0-.732.224c.009-.014.015-.026.024-.035.118-.12.268-.22.427-.319.126-.071.252-.143.398-.205.164-.067.33-.134.519-.187a8.26 8.26 0 0 1 1.033-.217c.851-.13 1.84-.19 2.915-.227.245-.006.496-.016.752-.023.299-.009.595-.018.904-.023 2.55-.06 5.33-.136 7.815-.713a18.15 18.15 0 0 1-5.614 1.154zm-3.967 1.094a69.35 69.35 0 0 0-2.362 2.911c-.003-.019-.018-.041-.026-.061-.099-.305-.422-.643-1.244-1.11-.663-.381-1.166-.564-1.529-.699-.614-.224-.639-.247-.46-.721.823-.703 3.034-.85 5.898-.952.068-.002.146-.003.216-.009h.063c-.165.19-.346.397-.556.641zm-2.731 3.316c-6.082-.391-17.073-1.09-29.548 7.726a183.969 183.969 0 0 1 4.072-2.8c7.547-4.308 16.038-6.192 25.293-5.598.278.279.25.469.183.672zm-2.124.721c-.442-.003-.88-.005-1.316-.005-9.677 0-16.457 1.222-26.496 7.714 12.491-9.094 23.552-8.511 29.722-8.116-.497.468-1.131.453-1.91.407zm-28.03 7.428c.204-.141.396-.277.596-.416-.241.166-.483.365-.717.54l.121-.124zm28.584-9.708c.155.076.318.16.5.266.173.1.319.187.448.276-7.882-.434-15.202.909-21.858 4.018.112-.072.23-.149.349-.218 8.584-4.155 14.628-4.448 20.561-4.342zm-17.718 2.712c.573-.31 1.14-.607 1.706-.886 6.545-2.266 12.557-2.881 14.278-2.877.01.335.271.465.755.64l.199.076c-5.01-.049-10.18.279-16.938 3.047zm16.426-4.821a2.612 2.612 0 0 0-.075.106c-.039.06-.094.102-.126.164l.016.005c-.047.076-.103.154-.137.22l.004.004-.012.015c-.034.088-.037.141-.056.215-1.44-.026-6.196.436-11.748 2.04 3.26-1.244 7.098-2.262 11.826-2.948.147-.015.296-.034.446-.047-.048.075-.119.13-.163.213l.025.013zm8.182-10.597c-.85 1.128-2.63 3.413-3.634 4.698l-.376.483c-8.531 1.215-15.246 4.56-21.101 8.638-2.689 1.82-5.453 3.929-8.309 6.361 5.732-6.306 16.173-17.518 33.42-20.18zM247.745 0c-3.98 3.82-8.538 4.356-12.561 4.827-.464.055-.923.112-1.371.17-.218.026-.489.048-.796.075-1.477.123-3.714.307-5.669 1.517-2.15 1.326-4.678 4.294-6.062 6.041l-.176.026c-17.916 2.614-28.587 14.366-34.319 20.681-.631.695-1.202 1.325-1.721 1.871l-2.551 2.546.224.246c12.734-8.963 20.164-9.656 29.264-9.656.436 0 .872.003 1.308.006.206.012.411.026.608.026.593 0 1.243-.11 1.742-.745l.019.012c1.038-1.457 2.726-3.422 3.504-4.314.126-.002.244-.008.374-.012.827-.025 1.696-.055 2.598-.096a18.616 18.616 0 0 0 8.583-2.54c.076-.037.159-.066.238-.109l-.009-.013a19.849 19.849 0 0 0 1.846-1.266 19.13 19.13 0 0 0 1.146-.952c.03-.028.061-.046.088-.075l-.005-.003c.492-.449.976-.915 1.43-1.42l2.849-3.81-.003-.003 3.846-5.379c.484-.503.981-1.082 1.493-1.761L248 .212 247.745 0z"/></svg>