<svg xmlns="http://www.w3.org/2000/svg" width="120" height="43" fill="none" viewBox="0 0 120 43"><path fill="#A5B5C4" fill-rule="evenodd" d="M.065 35.067V.063h24.609v34.941H.064v.063zm21.057-3.525V3.589H3.617v27.953h17.505z" clip-rule="evenodd"/><path stroke="#A5B5C4" stroke-miterlimit="2" stroke-width=".216" d="M.065 35.067V.063h24.609v34.941H.064v.063zm21.057-3.525V3.589H3.617v27.953h17.505z" clip-rule="evenodd"/><path fill="#A5B5C4" fill-rule="evenodd" d="M40.973 15.74H39.45c-1.966-2.77-3.995-5.604-5.962-8.752v8.751h-1.712V3.59h1.522c1.966 2.77 3.996 5.54 5.962 8.688h.064V3.589h1.712v12.15h-.063zm3.995-4.785a60.82 60.82 0 0 0 1.396-4.974h.063c.508 1.889.952 3.337 1.395 4.974h-2.854zm.825-7.366l-4.25 12.15h1.84l1.078-3.336h3.679l.951 3.336h2.347l-3.87-12.15h-1.775zm7.611 12.151V5.225h-3.235V3.589h8.563v1.637h-3.235v10.513h-2.093z" clip-rule="evenodd"/><path fill="#A5B5C4" d="M61.522 3.589H59.43v12.15h2.093V3.59z"/><path fill="#A5B5C4" fill-rule="evenodd" d="M67.992 14.228c-2.22 0-2.982-2.392-2.982-4.721 0-2.267.888-4.407 2.981-4.407 2.094 0 2.981 2.14 2.981 4.407 0 2.329-.76 4.721-2.98 4.721zm0 1.763c3.234 0 5.2-2.833 5.2-6.484 0-3.4-2.22-6.107-5.2-6.107-2.982 0-5.201 2.707-5.201 6.107 0 3.651 2.03 6.484 5.2 6.484zm15.665-.251h-1.522c-1.966-2.77-3.995-5.604-5.962-8.752v8.751h-1.712V3.59h1.522c1.966 2.77 3.996 5.54 5.962 8.688h.064V3.589h1.712v12.15h-.064zm3.996-4.785A60.82 60.82 0 0 0 89.05 5.98h.063c.508 1.889.952 3.337 1.395 4.974h-2.854zm.825-7.366l-4.25 12.15h1.84l1.078-3.336h3.679l.951 3.336h2.347L90.19 3.59h-1.712zm6.279 0h2.03v10.513h4.186v1.637h-6.216V3.59zm-55.053 22.35v5.036c-1.142.44-2.283.756-3.488.756-3.616 0-5.899-2.77-5.899-6.36 0-3.336 2.283-6.232 5.962-6.232 1.142 0 2.283.44 2.981.945l-.698 1.448c-.57-.378-1.458-.63-2.22-.63-2.22 0-3.742 1.763-3.742 4.533 0 2.896 1.776 4.596 3.552 4.596.571 0 1.015-.063 1.459-.315v-3.715h2.093v-.063zm7.484-4.974H43.7v3.337h3.425v1.637H43.7v3.903h4.122v1.637h-6.215V19.328h5.581v1.637zm6.469 9.003c-2.22 0-2.98-2.393-2.98-4.722 0-2.266.888-4.407 2.98-4.407 2.094 0 2.982 2.14 2.982 4.407 0 2.33-.762 4.722-2.982 4.722zm0 1.763c3.235 0 5.201-2.834 5.201-6.485 0-3.4-2.22-6.107-5.2-6.107-2.982 0-5.201 2.707-5.201 6.107 0 3.652 2.03 6.485 5.2 6.485zm15.349-5.792v5.036c-1.141.44-2.283.756-3.488.756-3.615 0-5.898-2.77-5.898-6.36 0-3.336 2.283-6.232 5.962-6.232 1.141 0 2.283.44 2.98.945l-.697 1.448c-.571-.378-1.459-.63-2.22-.63-2.22 0-3.742 1.763-3.742 4.533 0 2.896 1.776 4.596 3.552 4.596.57 0 1.014-.063 1.458-.315v-3.715h2.093v-.063zm3.996-4.974h.952c1.268 0 1.966.692 1.966 1.952 0 1.636-1.015 2.392-1.966 2.392-.19 0-.698.063-.888.063v-4.407h-.064zm5.328 10.514l-2.474-5.037c1.332-.692 2.093-2.14 2.093-3.588 0-2.393-1.459-3.526-3.805-3.526h-3.298v12.15h2.093v-4.595h.951l1.966 4.596h2.474zm3.488-4.785a60.773 60.773 0 0 0 1.395-4.974h.064c.507 1.89.951 3.337 1.395 4.974h-2.854zm.761-7.366l-4.186 12.15h1.84l1.078-3.336h3.678l.952 3.337h2.346l-3.932-12.151H82.58zm8.436 12.151h-2.093V19.328h3.298c2.347 0 3.805 1.133 3.805 3.526 0 2.077-1.522 4.092-4.059 4.092h-.951v-1.511c.127 0 .698-.063.888-.063 1.015-.063 1.966-.756 1.966-2.392 0-1.26-.698-1.952-1.903-1.952h-.951v10.45zm14.714 0h-2.093v-5.855H99.26v5.855h-2.03V19.328h2.03v4.659h4.376V19.39h2.093v12.088z" clip-rule="evenodd"/><path fill="#A5B5C4" d="M109.852 19.328h-2.093v12.15h2.093v-12.15z"/><path fill="#A5B5C4" fill-rule="evenodd" d="M119.302 21.532c-.507-.315-1.332-.693-2.156-.693-2.157 0-3.679 1.763-3.679 4.533 0 2.896 1.713 4.596 3.742 4.596.825 0 1.586-.252 2.093-.63l.571 1.511c-.634.44-1.776.819-2.791.819-3.615 0-5.898-2.77-5.898-6.36 0-3.336 2.283-6.232 5.898-6.232 1.079 0 2.093.44 2.791.944l-.571 1.512zM40.148 41.867c-1.395 0-1.903-1.574-1.903-3.022 0-1.448.571-2.833 1.903-2.833s1.903 1.385 1.903 2.833c0 1.51-.508 3.022-1.903 3.022zm0 1.133c2.093 0 3.361-1.826 3.361-4.155 0-2.204-1.395-3.966-3.361-3.966-1.903 0-3.362 1.762-3.362 3.966 0 2.33 1.269 4.155 3.362 4.155zm25.941-6.925v2.833h-.57c-.699 0-1.27-.315-1.27-1.574 0-.819.445-1.26 1.27-1.26h.57zm-3.806 6.8h1.523l1.712-2.96h.634v2.96h1.332v-7.87h-2.156c-1.522 0-2.474.755-2.474 2.266 0 .944.064 1.826 1.396 2.33l-1.967 3.273zm-29.112-.001H31.84v-7.87h2.093c1.523 0 2.474.756 2.474 2.267 0 1.322-.951 2.644-2.6 2.644h-.635v-.944c.064 0 .444 0 .571-.063.634-.063 1.269-.504 1.269-1.574 0-.819-.444-1.26-1.269-1.26h-.634v6.8h.063zm24.482 0h-1.332v-7.87h1.332v5.855l2.791-5.792h1.395v7.807h-1.395v-5.792l-2.79 5.792zm-8.435-6.421c-.317-.19-.888-.441-1.396-.441-1.395 0-2.41 1.133-2.41 2.896 0 1.889 1.078 2.959 2.41 2.959.508 0 1.015-.189 1.332-.378l.38.944c-.38.252-1.14.567-1.775.567-2.347 0-3.805-1.763-3.805-4.092 0-2.14 1.458-4.03 3.805-4.03.698 0 1.332.315 1.84.63l-.381.944z" clip-rule="evenodd"/><path fill="#A5B5C4" fill-rule="evenodd" d="M54.609 36.453c-.317-.19-.888-.441-1.395-.441-1.396 0-2.41 1.133-2.41 2.896 0 1.889 1.078 2.959 2.41 2.959a2.76 2.76 0 0 0 1.331-.378l.381.944c-.38.252-1.142.567-1.776.567-2.347 0-3.805-1.763-3.805-4.092 0-2.14 1.458-4.03 3.805-4.03.698 0 1.332.315 1.84.63l-.381.944z" clip-rule="evenodd"/></svg>