<svg xmlns="http://www.w3.org/2000/svg" width="123" height="21" fill="none" viewBox="0 0 123 21"><path fill="#FBB216" fill-rule="evenodd" d="M8.76 14.14a.912.912 0 0 1 1.018-.792l.203.025c1.727.216 3.473.216 5.2 0l.203-.025a.912.912 0 0 1 .226 1.813l-.203.026a22.76 22.76 0 0 1-5.652 0l-.203-.026a.913.913 0 0 1-.791-1.02zm13.481-1.165a1.641 1.641 0 1 1-3.28 0 1.641 1.641 0 1 1 3.28 0zM5.346 7.994V7.99v.003zm14.491.06V8.05v.002zm-13.635 4.92a1.641 1.641 0 0 1-3.281 0 1.641 1.641 0 1 1 3.28 0zm2.43-10.091c1.163-.17 2.592-.326 3.95-.326 1.356 0 2.785.155 3.949.326.978.144 1.81.86 2.165 1.883l1.083 3.116c-.955.388-3.058.943-7.18.885-4.067-.058-6.193-.573-7.197-.939l1.064-3.062c.356-1.024 1.188-1.739 2.165-1.883zM12.581 0c-1.53 0-3.095.172-4.322.353C6.252.649 4.694 2.09 4.056 3.925L2.941 7.136l-.01.032-2.085-.56a.547.547 0 0 0-.67.387l-.095.353a2.376 2.376 0 0 0 1.564 2.877v3.584a3.4 3.4 0 0 0 .365 1.55v3.646c0 .606.49 1.097 1.093 1.097H5.29c.604 0 1.094-.49 1.094-1.097v-1.723c1.473.129 4.01.228 6.197.255 2.188.029 4.724-.045 6.197-.167v1.635c0 .606.49 1.097 1.094 1.097h2.187c.604 0 1.093-.49 1.093-1.097V15.51c.238-.456.365-.984.365-1.538V10.2a2.378 2.378 0 0 0 1.56-2.876l-.094-.353a.545.545 0 0 0-.67-.387l-2.089.56-1.118-3.219C20.469 2.091 18.91.649 16.902.353 15.675.172 14.11 0 12.582 0z" clip-rule="evenodd"/><path fill="#373F47" fill-rule="evenodd" d="M98.507 16.437c-1.943 0-3.013-2.017-3.013-4.334 0-2.289 1.07-4.305 3.013-4.305 1.922 0 3.101 1.894 3.101 4.305 0 2.412-1.179 4.334-3.1 4.334zm4.56-11.064c-.848 0-1.459.654-1.459 1.417v.163c-.8-1.018-1.91-1.743-3.452-1.743-3.641 0-5.5 3.133-5.5 6.893v.028c0 3.76 1.859 6.894 5.5 6.894 1.544 0 2.655-.655 3.453-1.593.007.783.614 1.43 1.405 1.43a1.44 1.44 0 0 0 1.432-1.445V6.79c0-.763-.636-1.417-1.379-1.417zm18.235 0c-.848 0-1.459.654-1.459 1.417v10.627c0 .79.611 1.444 1.407 1.444a1.44 1.44 0 0 0 1.432-1.444V6.79c0-.763-.637-1.418-1.38-1.418zm-.053-1.444c.955 0 1.751-.79 1.751-1.799 0-.981-.796-1.772-1.751-1.772-.955 0-1.75.79-1.75 1.772 0 1.009.795 1.799 1.75 1.799zm-7.393 8.011l3.104-4.469a1.36 1.36 0 0 0 .239-.763c0-.681-.584-1.308-1.327-1.308-.451 0-.849.218-1.114.6l-2.653 3.95-2.731-3.977a1.301 1.301 0 0 0-1.088-.573c-.796 0-1.326.682-1.326 1.335 0 .246.079.49.238.736l3.104 4.47-3.369 4.85c-.159.218-.238.49-.238.735 0 .736.61 1.336 1.326 1.336.398 0 .769-.164 1.034-.545l3.05-4.415 2.998 4.415c.238.381.636.545 1.061.545.796 0 1.3-.681 1.3-1.335 0-.246-.053-.518-.212-.736l-3.396-4.85zm-23.722 4.415c-.159 0-.398.082-.584.082-.663 0-1.22-.546-1.22-1.554V8.098h1.565c.663 0 1.194-.572 1.194-1.254 0-.736-.53-1.308-1.194-1.308H88.33V1.803c0-.79-.61-1.444-1.38-1.444-.821 0-1.458.654-1.458 1.444v3.733h-1.061c-.663 0-1.22.572-1.22 1.254 0 .736.557 1.308 1.22 1.308h1.061v7.52c0 2.209 1.14 3.407 3.315 3.407 1.804 0 2.573-.544 2.573-1.417 0-.708-.477-1.253-1.246-1.253zM79.652 5.372c-.85 0-1.46.655-1.46 1.418v10.627c0 .79.61 1.444 1.407 1.444a1.44 1.44 0 0 0 1.432-1.444V6.79c0-.763-.637-1.418-1.38-1.418zM79.599.358c-.955 0-1.751.79-1.751 1.772 0 1.008.796 1.799 1.75 1.799.955 0 1.752-.79 1.752-1.799 0-.981-.797-1.772-1.751-1.772zm-5.175 5.014c-.61 0-1.193.41-1.353 1.01l-2.44 8.638-2.706-8.502c-.238-.682-.848-1.146-1.537-1.146-.77 0-1.38.464-1.592 1.146L62.09 15.02l-2.44-8.64c-.159-.6-.743-1.009-1.353-1.009-.848 0-1.406.71-1.406 1.39 0 .137.027.273.054.41l3.13 10.3c.238.818.981 1.39 1.803 1.39h.053c.85 0 1.618-.572 1.857-1.39l2.573-8.365 2.573 8.365c.238.818.982 1.39 1.83 1.39h.053c.822 0 1.591-.572 1.83-1.39l3.104-10.3c.052-.137.08-.273.08-.41a1.39 1.39 0 0 0-1.407-1.39zm-21.246 0c-.85 0-1.46.655-1.46 1.418v10.627c0 .79.61 1.444 1.407 1.444a1.44 1.44 0 0 0 1.432-1.444V6.79c0-.763-.637-1.418-1.38-1.418zM53.124.358c-.955 0-1.75.79-1.75 1.772 0 1.008.795 1.799 1.75 1.799s1.751-.79 1.751-1.799c0-.981-.796-1.772-1.751-1.772zM44.37 11.504l3.501-3.897c.186-.245.318-.572.318-.872 0-.736-.637-1.39-1.352-1.39-.345 0-.69.164-.929.437l-5.331 6.05V1.775c0-.763-.637-1.418-1.38-1.418-.849 0-1.459.655-1.459 1.418v15.641c0 .79.61 1.445 1.406 1.445a1.44 1.44 0 0 0 1.433-1.445v-2.234l1.75-1.88 3.555 4.96c.265.408.716.599 1.167.599.849 0 1.406-.764 1.406-1.472 0-.273-.106-.572-.266-.818l-3.82-5.068z" clip-rule="evenodd"/></svg>