<svg xmlns="http://www.w3.org/2000/svg" width="89" height="34" fill="none" viewBox="0 0 89 34"><path fill="#fff" fill-rule="evenodd" d="M85.576 13.564h.203c.076 0 .152 0 .203-.028.05-.026.076-.107.076-.187 0-.054-.026-.134-.076-.162-.05-.026-.152-.026-.203-.026H85.6l-.025.403zm0 .912h-.355v-1.637h.634c.127 0 .279 0 .38.08.127.08.178.242.178.403 0 .188-.102.349-.253.402l.278.725h-.38l-.228-.644h-.254v.67zm.229.617c.71 0 1.267-.644 1.267-1.422 0-.778-.583-1.422-1.267-1.422-.711 0-1.27.643-1.27 1.422 0 .778.559 1.422 1.27 1.422zm-1.675-1.449c0-1.02.76-1.851 1.675-1.851.938 0 1.673.831 1.673 1.851s-.735 1.851-1.673 1.851c-.914.027-1.675-.805-1.675-1.85z" clip-rule="evenodd"/><mask id="a" width="11" height="16" x="50" y="0" maskUnits="userSpaceOnUse"><path fill="#fff" fill-rule="evenodd" d="M50.778.523h9.384v15.133h-9.384V.523z" clip-rule="evenodd"/></mask><g mask="url(#a)"><path fill="#fff" fill-rule="evenodd" d="M60.162 1.274l-.456 3.166c-.99-.563-1.725-.778-2.512-.778-2.08 0-3.55 2.254-3.55 5.447 0 2.2.989 3.542 2.613 3.542.684 0 1.445-.242 2.383-.752l-.482 3.328c-1.04.322-1.699.43-2.485.43-3.019 0-4.895-2.416-4.895-6.28 0-5.205 2.587-8.855 6.315-8.855.482 0 .913.054 1.268.162l1.167.322c.304.134.38.16.634.268z" clip-rule="evenodd"/></g><path fill="#fff" fill-rule="evenodd" d="M50.853 3.448c-.075-.027-.177-.027-.278-.027-.914 0-1.446.51-2.309 1.932l.254-1.798h-2.536l-1.725 11.833h2.815c1.015-7.245 1.269-8.48 2.613-8.48h.203c.253-1.421.583-2.468 1.065-3.434l-.102-.026zM34.089 15.227c-.761.268-1.37.402-2.004.402-1.42 0-2.207-.912-2.207-2.603 0-.322.026-.697.077-1.073l.177-1.154.127-.938 1.217-8.077h2.79l-.33 1.744h1.446l-.406 2.871h-1.42l-.736 4.937c-.025.215-.05.376-.05.483 0 .617.304.885.964.885.33 0 .557-.027.76-.107l-.405 2.63zM23.03 7.285c0 1.502.66 2.522 2.13 3.3 1.117.59 1.32.778 1.32 1.315 0 .724-.508 1.073-1.598 1.073-.837 0-1.598-.135-2.512-.483l-.38 2.737.127.027.507.107c.178.027.406.08.736.108.659.053 1.192.107 1.547.107 2.942 0 4.311-1.262 4.311-3.945 0-1.61-.558-2.575-1.978-3.3-1.167-.59-1.293-.724-1.293-1.288 0-.644.456-.966 1.37-.966.557 0 1.293.08 2.003.188l.406-2.737c-.735-.134-1.826-.241-2.46-.241-3.17 0-4.261 1.797-4.236 3.998zm55.343 5.312c1.319 0 2.232-1.636 2.232-3.998 0-1.502-.533-2.334-1.497-2.334-1.268 0-2.181 1.664-2.181 3.971 0 1.556.482 2.361 1.446 2.361zm4.134 2.764h-2.663l.126-1.154c-.76.913-1.572 1.315-2.587 1.315-2.053 0-3.398-1.959-3.398-4.91 0-3.944 2.08-7.272 4.565-7.272 1.09 0 1.902.51 2.689 1.61l.608-4.158h2.765l-2.105 14.57zM41.393 8.063c.026-.242.026-.456.026-.59 0-.966-.482-1.53-1.32-1.53-.887 0-1.521.752-1.775 2.12h3.07zm1.573 7.057a8.856 8.856 0 0 1-2.891.483c-3.12 0-4.77-1.825-4.77-5.313 0-4.079 2.08-7.057 4.896-7.057 2.308 0 3.78 1.69 3.78 4.32 0 .859-.102 1.718-.356 2.925h-5.58c-.025.188-.025.268-.025.375 0 1.396.837 2.093 2.46 2.093.99 0 1.902-.24 2.917-.75l-.431 2.924zm-31.197.241h-2.79l1.598-11.19-3.602 11.19H5.073L4.845 4.252l-1.7 11.109H.532L2.714.818h4.033l.101 9.016L9.588.818h4.362L11.77 15.36zm9.257 0h-2.333l.05-1.234c-.71.992-1.648 1.422-2.941 1.422-1.522 0-2.562-1.315-2.562-3.22 0-2.897 1.826-4.561 4.92-4.561.33 0 .736.027 1.142.08.076-.402.101-.563.101-.778 0-.778-.482-1.073-1.8-1.073-.787 0-1.7.134-2.334.349l-.356.134-.253.08.38-2.656c1.395-.456 2.334-.644 3.348-.644 2.41 0 3.678 1.207 3.678 3.461 0 .59-.05 1.02-.228 2.362l-.558 4.212-.102.751-.076.59-.05.43-.026.295zm-2.029-5.259c-.304-.027-.431-.054-.634-.054-1.598 0-2.384.617-2.384 1.798 0 .724.406 1.207 1.015 1.207 1.116 0 1.953-1.207 2.003-2.95zm48.038 5.259h-2.333l.05-1.234c-.71.992-1.648 1.422-2.941 1.422-1.522 0-2.562-1.315-2.562-3.22 0-2.898 1.826-4.562 4.92-4.562.305 0 .736.028 1.142.081.076-.402.101-.563.101-.778 0-.778-.482-1.073-1.8-1.073-.787 0-1.7.134-2.334.349l-.406.107-.254.08.38-2.656c1.396-.456 2.335-.644 3.35-.644 2.409 0 3.677 1.207 3.677 3.461 0 .59-.051 1.02-.229 2.361l-.583 4.187-.076.75-.076.59-.051.403.025.376zm-2.029-5.259c-.279-.027-.43-.054-.634-.054-1.598 0-2.41.617-2.41 1.798 0 .724.407 1.207 1.016 1.207 1.14 0 1.978-1.207 2.028-2.951zm9.867-6.654c-.076-.027-.178-.027-.28-.027-.912 0-1.445.51-2.307 1.932l.253-1.798h-2.536l-1.725 11.833h2.815c1.015-7.245 1.269-8.48 2.613-8.48h.203c.253-1.421.609-2.468 1.065-3.434l-.101-.026zm-9.004 23.451c0-2.979-1.395-5.313-4.008-5.313-3.018 0-4.97 2.817-4.97 6.977 0 2.978 1.166 5.42 4.006 5.42 2.867 0 4.972-2.147 4.972-7.084zm-2.765-.027c0 2.683-.786 4.266-2.029 4.266-.913.027-1.445-1.046-1.445-2.63 0-1.877.811-4.024 2.08-4.024 1.04 0 1.394 1.154 1.394 2.388zm-5.326-7.352l-.431 3.166c-.939-.563-1.599-.778-2.334-.778-1.953 0-3.322 2.254-3.322 5.447 0 2.2.913 3.542 2.434 3.542.66 0 1.37-.241 2.233-.752l-.457 3.328c-.964.322-1.598.429-2.334.429-2.815 0-4.59-2.415-4.59-6.279 0-5.205 2.435-8.854 5.91-8.854.456 0 .836.053 1.166.16l1.066.323c.355.107.43.134.659.268zm-17.323 2.147c-.076-.027-.178-.027-.28-.027-.862 0-1.344.51-2.155 1.932l.253-1.798h-2.358l-1.598 11.833h2.612c.939-7.244 1.192-8.479 2.435-8.479a.67.67 0 0 1 .203.027c.228-1.422.558-2.469.989-3.434l-.101-.054zm30.309 9.042c1.243 0 2.08-1.637 2.08-3.998 0-1.503-.482-2.308-1.395-2.308-1.192 0-2.03 1.637-2.03 3.972 0 1.556.457 2.334 1.345 2.334zm3.88 2.79H72.16l.126-1.153c-.71.912-1.47 1.315-2.434 1.315-1.902 0-3.171-1.96-3.171-4.91 0-3.945 1.953-7.272 4.261-7.272 1.015 0 1.801.51 2.51 1.636l.584-4.159h2.588L74.644 33.5zM14.432 26.39c0-.242.025-.457.025-.591 0-.966-.456-1.53-1.243-1.53-.837 0-1.42.752-1.674 2.12h2.892zm1.47 7.056a7.697 7.697 0 0 1-2.688.483c-2.916 0-4.438-1.825-4.438-5.313 0-4.051 1.953-7.056 4.565-7.056 2.156 0 3.525 1.663 3.525 4.32 0 .858-.1 1.717-.33 2.924h-5.198c-.026.188-.026.269-.026.376 0 1.368.787 2.065 2.308 2.065.938 0 1.776-.24 2.714-.75l-.431 2.951zm29.676-7.056c.026-.242.026-.457.026-.591 0-.966-.457-1.53-1.243-1.53-.837 0-1.42.752-1.675 2.12h2.892zm1.471 7.056a7.699 7.699 0 0 1-2.688.483c-2.942 0-4.464-1.825-4.464-5.313 0-4.051 1.953-7.056 4.565-7.056 2.156 0 3.551 1.663 3.551 4.32 0 .858-.101 1.717-.33 2.924h-5.2c-.025.188-.025.269-.025.376 0 1.368.787 2.065 2.309 2.065.938 0 1.775-.24 2.713-.75l-.43 2.951zm35.052-7.056c0-.242.026-.457.026-.591 0-.966-.457-1.53-1.243-1.53-.837 0-1.42.752-1.674 2.12h2.89zm1.472 7.056c-.914.322-1.776.483-2.69.483-2.916 0-4.463-1.825-4.463-5.313 0-4.051 1.953-7.056 4.59-7.056 2.156 0 3.526 1.663 3.526 4.32 0 .858-.101 1.717-.33 2.924h-5.2c-.024.188-.024.269-.024.376 0 1.368.786 2.065 2.308 2.065.938 0 1.775-.24 2.714-.75l-.431 2.951zM8.142 22.203c-.508-.376-1.218-.67-2.182-.67-1.065 0-1.902.241-1.902 1.422 0 2.093 3.856 1.314 3.856 5.822 0 4.106-2.537 5.179-4.845 5.179-1.015 0-2.206-.349-3.069-.779l.634-3.005c.533.51 1.573.859 2.46.859.837 0 2.106-.242 2.106-1.771 0-2.388-3.856-1.502-3.856-5.689 0-3.836 2.258-4.963 4.439-4.963 1.217 0 2.384.187 3.044.67l-.685 2.925zm15.421 11.243c-.533.268-1.268.456-2.334.456-2.282 0-3.702-2.415-3.702-5.367 0-3.863 2.053-6.922 5.072-6.922.66 0 1.674.295 2.46.778l-.583 2.817c-.558-.402-1.142-.643-1.75-.643-1.395 0-2.41 1.368-2.41 3.782 0 1.396.736 2.55 1.877 2.55.685 0 1.167-.162 1.75-.51l-.38 3.059zm9.79-2.978c-.127 1.02-.254 2.012-.33 3.059h-2.51l.203-1.905h-.026c-.786 1.287-1.598 2.173-3.044 2.173-1.572 0-2.435-1.77-2.435-4.052 0-.805.05-1.234.203-2.468l.71-5.474h2.816l-.76 5.5c-.078.59-.178 1.181-.178 1.798 0 .698.304 1.396 1.065 1.341 1.141 0 1.826-1.475 2.029-3.22l.786-5.419h2.714l-1.243 8.667zm52.832 2.924h-.431v-1.959h-.61v-.429h1.65v.43h-.61v1.958zm2.815 0h-.405v-1.985l-.381 1.985h-.406l-.38-1.985v1.985h-.406v-2.388h.634l.355 1.878h.025l.355-1.878H89v2.388z" clip-rule="evenodd"/></svg>