<svg xmlns="http://www.w3.org/2000/svg" width="71" height="33" fill="none" viewBox="0 0 71 33"><path fill="#fff" fill-rule="evenodd" d="M28.57 17.787L25.03 28l-.378-2.076c-.882-2.544-2.79-5.213-5.014-6.295l3.24 13.114 3.828-.002 5.695-14.954h-3.83zm3.035 14.971l2.264-14.986h3.618l-2.265 14.986h-3.617zm16.74-14.616a8.42 8.42 0 0 0-3.242-.631c-3.578 0-6.092 2.034-6.114 4.945-.023 2.155 1.797 3.357 3.166 4.073 1.412.733 1.884 1.203 1.88 1.859-.014 1.004-1.13 1.461-2.167 1.461-1.447 0-2.217-.225-3.403-.783l-.47-.239-.506 3.354c.847.417 2.409.78 4.033.798 3.798 0 6.269-2.011 6.298-5.118.015-1.71-.951-3.003-3.04-4.072-1.261-.694-2.041-1.155-2.03-1.859.001-.622.655-1.288 2.073-1.288a5.978 5.978 0 0 1 2.707.576l.323.172.492-3.248zm4.817 9.302c.3-.86 1.441-4.189 1.441-4.189-.022.04.297-.866.481-1.427l.241 1.291.84 4.325h-3.003zm4.461-9.656h-2.795c-.866 0-1.516.264-1.898 1.243l-5.37 13.731h3.8s.62-1.848.761-2.253c.414 0 4.105.009 4.631.009.112.523.441 2.244.441 2.244h3.36l-2.93-14.974z" clip-rule="evenodd"/><path fill="#fff" fill-rule="evenodd" d="M21.745 17.78h-5.834l-.034.257c4.536 1.241 7.53 4.288 8.775 7.892l-1.268-6.887c-.218-.948-.852-1.23-1.639-1.263zM4.968 14.158H2.66L0 1.328 2.55.872l1.82 10.04 4.638-9.907h2.449l-6.49 13.153zm8.759-7.838c-.852 0-1.648.72-2.024 2.22h3.407c.064-1.423-.354-2.22-1.383-2.22zm3.237 3.644h-5.5c-.151 1.784.624 2.562 1.938 2.562 1.1 0 2.068-.437 3.11-1.139l-.01 1.784c-1.02.684-2.201 1.12-3.586 1.12-2.395 0-3.977-1.462-3.502-4.764.429-2.98 2.357-4.783 4.592-4.783 2.573 0 3.43 2.069 3.055 4.669-.027.19-.078.418-.097.55zm3.586-1.12l-.757 5.257h-2.13l1.32-9.167h1.81l.002 1.84c.72-1.062 1.7-1.954 3.042-2.03l.012 2.258c-1.344.095-2.554.855-3.3 1.842zm5.894-5.448c-.71 0-1.2-.53-1.091-1.29.112-.778.758-1.329 1.468-1.329.692 0 1.181.55 1.07 1.329-.11.76-.754 1.29-1.447 1.29zm-2.622 10.705l1.319-9.167h2.13L25.95 14.1h-2.13zm9.345-11.672c-.728 0-1.167.341-1.285 1.158l-.194 1.347h1.633l-.001 1.86h-1.9L30.37 14.1h-2.112l1.052-7.307h-1.243l.268-1.86h1.242l.227-1.575c.292-2.031 1.608-2.79 3.364-2.79.373 0 .652.038.86.076l.015 1.86a5.054 5.054 0 0 0-.876-.076zm2.647.967c-.71 0-1.202-.53-1.092-1.29.112-.778.758-1.329 1.468-1.329.693 0 1.181.55 1.07 1.329-.11.76-.754 1.29-1.446 1.29zM33.19 14.101l1.319-9.167h2.13L35.32 14.1h-2.13zm8.467-7.781c-.851 0-1.647.72-2.022 2.22h3.406c.063-1.423-.354-2.22-1.383-2.22zm3.238 3.644h-5.501c-.15 1.784.625 2.562 1.938 2.562 1.1 0 2.068-.437 3.11-1.139l-.008 1.784c-1.022.684-2.203 1.12-3.587 1.12-2.395 0-3.977-1.462-3.502-4.764.429-2.98 2.356-4.783 4.592-4.783 2.574 0 3.43 2.069 3.055 4.669-.027.19-.078.418-.097.55z" clip-rule="evenodd"/><mask id="a" width="11" height="15" x="45" y="0" maskUnits="userSpaceOnUse"><path fill="#fff" fill-rule="evenodd" d="M45.7.398h9.302V14.29H45.7V.398z" clip-rule="evenodd"/></mask><g mask="url(#a)"><path fill="#fff" fill-rule="evenodd" d="M51.914 7.06c-.494-.266-.883-.399-1.61-.399-1.119 0-2.074.968-2.364 2.98-.256 1.784.333 2.62 1.274 2.62.78 0 1.455-.494 2.132-1.253l.568-3.948zm-.712 7.041l.006-1.271c-.716.778-1.648 1.461-2.837 1.461-1.793 0-3.024-1.423-2.58-4.517.492-3.416 2.467-4.935 4.455-4.935.816 0 1.451.152 1.938.342l.637-4.423 2.181-.36L53.03 14.1h-1.828z" clip-rule="evenodd"/></g><path fill="#fff" fill-rule="evenodd" d="M60.743 8.537c-.537 0-1.077.389-1.555.906l-.453 3.149c.318.129.538.186.995.186 1.021 0 1.735-.66 1.963-2.242.192-1.337-.224-1.999-.95-1.999zm-1.19 5.65a7.162 7.162 0 0 1-2.594-.46l1.4-9.733 1.652-.273-.605 4.213c.482-.46 1.153-.92 1.973-.92 1.371 0 2.29 1.093 1.955 3.421-.369 2.56-1.845 3.753-3.78 3.753zm7.58.288c-.824 1.71-1.64 2.243-2.89 2.243a1.86 1.86 0 0 1-.58-.072l-.01-1.424c.206.058.428.1.737.1.471 0 .88-.229 1.155-.732l.213-.46-1.367-6.844 1.713-.23.794 4.946 2.149-4.845h1.6l-3.514 7.318z" clip-rule="evenodd"/></svg>